<?xml version="1.0" encoding="iso-8859-1"?>
<!-- Generator: Adobe Illustrator 16.0.0, SVG Export Plug-In . SVG Version: 6.00 Build 0)  -->
<!DOCTYPE svg PUBLIC "-//W3C//DTD SVG 1.1//EN" "http://www.w3.org/Graphics/SVG/1.1/DTD/svg11.dtd">
<svg version="1.1" id="Capa_1" xmlns="http://www.w3.org/2000/svg" xmlns:xlink="http://www.w3.org/1999/xlink" x="0px" y="0px"
	 width="448px" height="448px" viewBox="0 0 448 448" style="enable-background:new 0 0 448 448;" xml:space="preserve">
<g>
	<path d="M321.939,210.326C340.689,188.055,352,159.322,352,128C352,57.42,294.578,0,224,0h-64H96H64v448h32h64h96
		c70.578,0,128-57.421,128-128C384,273.521,359.102,232.752,321.939,210.326z M160,64h50.75c27.984,0,50.75,28.71,50.75,64
		s-22.766,64-50.75,64H160V64z M239.5,384H160V256h79.5c29.225,0,53,28.71,53,64S268.725,384,239.5,384z"/>
</g>
<g>
</g>
<g>
</g>
<g>
</g>
<g>
</g>
<g>
</g>
<g>
</g>
<g>
</g>
<g>
</g>
<g>
</g>
<g>
</g>
<g>
</g>
<g>
</g>
<g>
</g>
<g>
</g>
<g>
</g>
</svg>
