<?xml version="1.0" encoding="utf-8"?>
<!-- Generator: Adobe Illustrator 17.0.0, SVG Export Plug-In . SVG Version: 6.00 Build 0)  -->
<!DOCTYPE svg PUBLIC "-//W3C//DTD SVG 1.1//EN" "http://www.w3.org/Graphics/SVG/1.1/DTD/svg11.dtd">
<svg version="1.1" id="Layer_1" xmlns="http://www.w3.org/2000/svg" xmlns:xlink="http://www.w3.org/1999/xlink" x="0px" y="0px"
	 width="26px" height="26px" viewBox="0 0 26 26" enable-background="new 0 0 26 26" xml:space="preserve">
<path d="M25.5,23.577v0.962c0,0.531-0.43,0.962-0.962,0.962h-0.962c-0.531,0-0.962-0.43-0.962-0.962s0.43-0.962,0.962-0.962
	c0-0.531,0.43-0.962,0.962-0.962S25.5,23.045,25.5,23.577z M24.538,11.038c-0.531,0-0.962,0.43-0.962,0.961v2
	c0,0.531,0.43,0.961,0.962,0.961S25.5,14.531,25.5,14v-2C25.5,11.469,25.07,11.038,24.538,11.038z M24.538,5.25
	c-0.531,0-0.962,0.431-0.962,0.962v2c0,0.531,0.43,0.962,0.962,0.962S25.5,8.742,25.5,8.211v-2C25.5,5.68,25.07,5.25,24.538,5.25z
	 M24.538,16.826c-0.531,0-0.962,0.43-0.962,0.962v2c0,0.531,0.43,0.962,0.962,0.962s0.962-0.43,0.962-0.962v-2
	C25.5,17.256,25.07,16.826,24.538,16.826z M24.538,0.5h-0.962c-0.531,0-0.962,0.431-0.962,0.962s0.43,0.962,0.962,0.962
	c0,0.531,0.43,0.962,0.962,0.962S25.5,2.954,25.5,2.423V1.462C25.5,0.931,25.07,0.5,24.538,0.5z M17.788,2.423h2
	c0.531,0,0.962-0.431,0.962-0.962S20.32,0.5,19.788,0.5h-2c-0.531,0-0.962,0.431-0.962,0.962S17.256,2.423,17.788,2.423z
	 M6.211,2.423h2c0.531,0,0.962-0.431,0.962-0.962S8.742,0.5,8.211,0.5h-2C5.68,0.5,5.25,0.931,5.25,1.462S5.68,2.423,6.211,2.423z
	 M12,2.423h2c0.531,0,0.961-0.431,0.961-0.962S14.531,0.5,14,0.5h-2c-0.531,0-0.961,0.431-0.961,0.962S11.469,2.423,12,2.423z
	 M1.462,3.385c0.531,0,0.962-0.431,0.962-0.962c0.531,0,0.962-0.431,0.962-0.962S2.954,0.5,2.423,0.5H1.462
	C0.931,0.5,0.5,0.931,0.5,1.462v0.962C0.5,2.954,0.931,3.385,1.462,3.385z M1.462,9.173c0.531,0,0.962-0.431,0.962-0.962v-2
	c0-0.531-0.431-0.962-0.962-0.962S0.5,5.68,0.5,6.211v2C0.5,8.742,0.931,9.173,1.462,9.173z M19.788,23.577h-2
	c-0.531,0-0.962,0.43-0.962,0.962s0.43,0.962,0.962,0.962h2c0.531,0,0.962-0.43,0.962-0.962S20.32,23.577,19.788,23.577z
	 M21.176,4.405l-5.95,0.743c-0.263,0.032-0.324,0.213-0.138,0.399l2.038,2.038l-6.375,6.376H2.423V12
	c0-0.531-0.431-0.961-0.962-0.961S0.5,11.469,0.5,12v2c0,0.171,0.056,0.323,0.134,0.461C0.556,14.6,0.5,14.752,0.5,14.923v2.865v2
	v3.789v0.962c0,0.531,0.431,0.962,0.962,0.962h0.962h3.788h2h2.866c0.171,0,0.323-0.056,0.462-0.134
	C11.677,25.444,11.829,25.5,12,25.5h2c0.531,0,0.961-0.43,0.961-0.962s-0.43-0.962-0.961-0.962h-1.962V15.25l6.376-6.377
	l2.036,2.036c0.188,0.187,0.367,0.125,0.4-0.138l0.743-5.95C21.627,4.561,21.439,4.372,21.176,4.405z"/>
</svg>
