<?xml version="1.0" encoding="utf-8"?>
<!-- Generator: Adobe Illustrator 15.0.2, SVG Export Plug-In . SVG Version: 6.00 Build 0)  -->
<!DOCTYPE svg PUBLIC "-//W3C//DTD SVG 1.1//EN" "http://www.w3.org/Graphics/SVG/1.1/DTD/svg11.dtd">
<svg version="1.1" id="Calque_1" xmlns="http://www.w3.org/2000/svg" xmlns:xlink="http://www.w3.org/1999/xlink" x="0px" y="0px"
	 width="120px" height="120px" viewBox="0 0 120 120" enable-background="new 0 0 120 120" xml:space="preserve">
<g id="g12" transform="matrix(1.25,0,0,-1.25,0,120)">
	<g id="g830">
		<g id="g832">
			<g id="g838" transform="translate(53.99,47.74)">
				<path id="path840" d="M0,0c0,3.65-2.962,6.613-6.62,6.613c-3.65,0-6.61-2.963-6.61-6.613c0-3.654,2.96-6.616,6.61-6.616
					C-2.962-6.617,0-3.654,0,0"/>
			</g>
			<g id="g842" transform="translate(79.74,50.41)">
				<path id="path844" d="M0,0c-0.313,4.239-1.42,8.308-3.285,12.1c-1.944,3.93-4.62,7.38-7.965,10.26
					c-3.34,2.88-7.15,5.03-11.33,6.37c-3.99,1.3-8.27,1.73-12.41,1.49c-4.27-0.31-8.34-1.42-12.13-3.31
					c-3.29-1.61-6.29-3.91-8.87-6.54l-0.04,0.03l-6,5.1l-1.55-21.097l20.6,4.88l-5.95,5.057l-0.04,0.03
					c1.68,1.59,3.76,3.14,5.85,4.17c2.66,1.31,5.63,2.13,8.59,2.35c3.14,0.17,6.15-0.16,8.94-1.06c2.97-0.96,5.68-2.49,8.07-4.55
					c2.39-2.06,4.3-4.52,5.68-7.322c1.34-2.698,2.135-5.594,2.358-8.612c0.044-0.599,0.066-1.18,0.066-1.76
					c0-2.446-0.378-4.859-1.123-7.157c-0.96-2.969-2.48-5.689-4.54-8.079c-2.08-2.39-4.54-4.31-7.33-5.68
					c-2.7-1.33-5.609-2.13-8.659-2.359c-0.56-0.041-1.14-0.06-1.73-0.06c-2.42,0-4.83,0.38-7.14,1.12
					c-2.97,0.97-5.69,2.491-8.08,4.55c-2.39,2.07-4.3,4.53-5.68,7.32l-8.23-4.14c1.93-3.93,4.61-7.38,7.95-10.26
					c3.36-2.89,7.16-5.03,11.33-6.37c3.22-1.04,6.59-1.57,9.99-1.57h0.16c0.76,0,1.53,0.03,2.29,0.08c4.23,0.32,8.3,1.43,12.1,3.3
					c3.93,1.95,7.38,4.62,10.264,7.96c2.88,3.34,5.024,7.15,6.364,11.32C-0.44-9.198,0.089-5.824,0.089-2.414
					C0.089-1.607,0.062-0.808,0,0"/>
			</g>
		</g>
	</g>
</g>
</svg>
