<?xml version="1.0" encoding="utf-8"?>
<!-- Generator: Adobe Illustrator 15.0.2, SVG Export Plug-In . SVG Version: 6.00 Build 0)  -->
<!DOCTYPE svg PUBLIC "-//W3C//DTD SVG 1.1//EN" "http://www.w3.org/Graphics/SVG/1.1/DTD/svg11.dtd">
<svg version="1.1" id="Calque_1" xmlns="http://www.w3.org/2000/svg" xmlns:xlink="http://www.w3.org/1999/xlink" x="0px" y="0px"
	 width="120px" height="120px" viewBox="0 0 120 120" enable-background="new 0 0 120 120" xml:space="preserve">
<g id="g12" transform="matrix(1.25,0,0,-1.25,0,120)">
	<g id="g1298">
		<g id="g1300">
			<path id="path1306" d="M70.84,50.41H25.16V19.32h45.68V50.41z M80.88,67.78V16.74c0-1.08-0.88-1.96-1.959-1.96H17.08
				c-1.08,0-1.96,0.88-1.96,1.96v62.52c0,1.08,0.88,1.96,1.96,1.96h8.08V57.47H60.8v23.75h6.65L80.88,67.78z M64.84,30.94H29.86
				v-3.92h34.98V30.94z M64.84,41.95H29.86v-3.93h34.98V41.95z M55.13,61.11H41.52v17.48h13.61V61.11z"/>
		</g>
	</g>
</g>
</svg>
