<?xml version="1.0" encoding="utf-8"?>
<!-- Generator: Adobe Illustrator 15.0.2, SVG Export Plug-In . SVG Version: 6.00 Build 0)  -->
<!DOCTYPE svg PUBLIC "-//W3C//DTD SVG 1.1//EN" "http://www.w3.org/Graphics/SVG/1.1/DTD/svg11.dtd">
<svg version="1.1" id="Calque_1" xmlns="http://www.w3.org/2000/svg" xmlns:xlink="http://www.w3.org/1999/xlink" x="0px" y="0px"
	 width="120px" height="120px" viewBox="0 0 120 120" enable-background="new 0 0 120 120" xml:space="preserve">
<g id="g12" transform="matrix(1.25,0,0,-1.25,0,120)">
	<g id="g378">
		<g id="g380">
			<g id="g386" transform="translate(48,64.48)">
				<path id="path388" d="M0,0c-9.086,0-16.48-7.391-16.48-16.48c0-9.08,7.394-16.47,16.48-16.47s16.48,7.391,16.48,16.47
					C16.48-7.391,9.086,0,0,0 M0-36.82c-11.23,0-20.34,9.11-20.34,20.34C-20.34-5.241-11.23,3.866,0,3.866
					c11.24,0,20.34-9.107,20.34-20.346C20.34-27.71,11.24-36.82,0-36.82 M24.82-16.48l7.85,7.46L22.36-5.706L26.2,4.418L15.48,2.927
					L14.54,13.71L5.527,7.721L0.003,17.03L-5.52,7.721l-9.02,5.989l-0.94-10.783L-26.2,4.418l3.84-10.124L-32.67-9.02l7.85-7.46
					l-7.85-7.46l10.31-3.31l-3.84-10.12l10.72,1.49l0.94-10.79l9.02,5.99l5.523-9.31l5.523,9.31l9.013-5.99l0.94,10.79l10.72-1.49
					l-3.84,10.12l10.31,3.31L24.82-16.48z"/>
			</g>
		</g>
	</g>
</g>
</svg>
