<?xml version="1.0" encoding="iso-8859-1"?>
<!-- Generator: Adobe Illustrator 18.0.0, SVG Export Plug-In . SVG Version: 6.00 Build 0)  -->
<!DOCTYPE svg PUBLIC "-//W3C//DTD SVG 1.1//EN" "http://www.w3.org/Graphics/SVG/1.1/DTD/svg11.dtd">
<svg xmlns="http://www.w3.org/2000/svg" xmlns:xlink="http://www.w3.org/1999/xlink" version="1.1" id="Capa_1" x="0px" y="0px" viewBox="0 0 444.892 444.892" style="enable-background:new 0 0 444.892 444.892;" xml:space="preserve" width="512px" height="512px">
<g id="XMLID_476_">
	<path id="XMLID_503_" d="M440.498,173.103c5.858-5.857,5.858-15.355,0-21.213l-22.511-22.511c-5.091-5.091-13.084-5.846-19.038-1.8   l-47.332,32.17l31.975-47.652c3.993-5.951,3.219-13.897-1.85-18.964l-48.83-48.83c-4.508-4.508-11.372-5.675-17.114-2.908   l-8.443,4.065l4.043-8.97c2.563-5.685,1.341-12.361-3.068-16.771L293.002,4.393c-5.857-5.857-15.355-5.857-21.213,0   l-119.06,119.059l168.71,168.71L440.498,173.103z" fill="#FFFFFF"/>
	<path id="XMLID_1199_" d="M130.56,145.622l-34.466,34.466c-2.813,2.813-4.394,6.628-4.394,10.606s1.58,7.794,4.394,10.606   l32.694,32.694c6.299,6.299,9.354,14.992,8.382,23.849c-0.971,8.851-5.843,16.677-13.366,21.473   C27.736,340.554,18.781,349.51,15.839,352.453c-21.119,21.118-21.119,55.48,0,76.6c21.14,21.14,55.504,21.098,76.6,0   c2.944-2.943,11.902-11.902,73.136-107.965c4.784-7.505,12.607-12.366,21.462-13.339c8.883-0.969,17.575,2.071,23.859,8.354   l32.694,32.694c5.857,5.857,15.356,5.857,21.213,0l34.467-34.467L130.56,145.622z M70.05,404.825c-8.28,8.28-21.704,8.28-29.983,0   c-8.28-8.28-8.28-21.704,0-29.983c8.28-8.28,21.704-8.28,29.983,0C78.33,383.121,78.33,396.545,70.05,404.825z" fill="#FFFFFF"/>
</g>
<g>
</g>
<g>
</g>
<g>
</g>
<g>
</g>
<g>
</g>
<g>
</g>
<g>
</g>
<g>
</g>
<g>
</g>
<g>
</g>
<g>
</g>
<g>
</g>
<g>
</g>
<g>
</g>
<g>
</g>
</svg>
