<?xml version="1.0" encoding="utf-8"?>
<!-- Generator: Adobe Illustrator 15.0.2, SVG Export Plug-In . SVG Version: 6.00 Build 0)  -->
<!DOCTYPE svg PUBLIC "-//W3C//DTD SVG 1.1//EN" "http://www.w3.org/Graphics/SVG/1.1/DTD/svg11.dtd">
<svg version="1.1" id="Calque_1" xmlns="http://www.w3.org/2000/svg" xmlns:xlink="http://www.w3.org/1999/xlink" x="0px" y="0px"
	 width="120px" height="120px" viewBox="0 0 120 120" enable-background="new 0 0 120 120" xml:space="preserve">
<g id="g12" transform="matrix(1.25,0,0,-1.25,0,120)">
	<g id="g846">
		<g id="g848">
			<g id="g854" transform="translate(42.01,47.74)">
				<path id="path856" d="M0,0c0-3.654,2.963-6.616,6.621-6.616c3.648,0,6.619,2.962,6.619,6.616c0,3.65-2.97,6.613-6.619,6.613
					C2.963,6.613,0,3.65,0,0"/>
			</g>
			<g id="g858" transform="translate(64.28,30.33)">
				<path id="path860" d="M0,0c-2.395-2.056-5.113-3.586-8.08-4.547c-2.32-0.748-4.73-1.126-7.14-1.126
					c-0.59,0.005-1.17,0.023-1.73,0.066c-3.06,0.225-5.97,1.023-8.66,2.352c-2.8,1.377-5.26,3.294-7.33,5.689
					C-35,4.823-36.53,7.54-37.49,10.51c-0.74,2.3-1.12,4.71-1.12,7.16c0,0.57,0.02,1.16,0.07,1.75c0.22,3.02,1.02,5.92,2.35,8.62
					c1.38,2.8,3.3,5.26,5.68,7.32c2.39,2.06,5.11,3.59,8.08,4.55c2.79,0.9,5.8,1.23,8.93,1.06c2.96-0.22,5.933-1.03,8.6-2.35
					c2.083-1.03,4.164-2.58,5.839-4.17l-0.037-0.03l-5.941-5.06l20.59-4.88l-1.54,21.1l-6.004-5.1l-0.039-0.03
					c-2.578,2.63-5.584,4.93-8.875,6.54c-3.787,1.89-7.857,3-12.132,3.31c-4.13,0.24-8.41-0.19-12.4-1.49
					c-4.18-1.34-8-3.49-11.33-6.37c-3.35-2.88-6.03-6.33-7.97-10.26c-1.86-3.79-2.97-7.86-3.28-12.1c-0.07-0.81-0.09-1.61-0.09-2.41
					c0-3.41,0.52-6.79,1.57-10.029c1.34-4.174,3.48-7.979,6.36-11.32c2.88-3.339,6.34-6.016,10.27-7.962
					c3.8-1.87,7.87-2.99,12.09-3.3c0.76-0.05,1.53-0.09,2.3-0.09h0.15c3.41,0,6.772,0.54,9.99,1.58
					C-1.209-12.11,2.6-9.97,5.951-7.086C9.292-4.201,11.97-0.752,13.91,3.18l-8.23,4.141C4.292,4.526,2.389,2.064,0,0"/>
			</g>
		</g>
	</g>
</g>
</svg>
