<?xml version="1.0" encoding="iso-8859-1"?>
<!-- Generator: Adobe Illustrator 16.0.0, SVG Export Plug-In . SVG Version: 6.00 Build 0)  -->
<!DOCTYPE svg PUBLIC "-//W3C//DTD SVG 1.1//EN" "http://www.w3.org/Graphics/SVG/1.1/DTD/svg11.dtd">
<svg version="1.1" id="Layer_1" xmlns="http://www.w3.org/2000/svg" xmlns:xlink="http://www.w3.org/1999/xlink" x="0px" y="0px"
	 width="512px" height="512px" viewBox="0 0 512 512" style="enable-background:new 0 0 512 512;" xml:space="preserve">
<path d="M337.374,146.323c-36.583-49.345-73.689-89.267-74.061-89.664c-1.892-2.029-4.541-3.182-7.314-3.182
	c-2.774,0-5.423,1.152-7.314,3.182c-0.371,0.397-37.478,40.319-74.06,89.664c-49.971,67.403-75.308,119.726-75.308,155.514
	c0,86.396,70.287,156.686,156.682,156.686c86.396,0,156.684-70.289,156.684-156.686
	C412.683,266.049,387.345,213.727,337.374,146.323z M271.647,407.819c-8.213,1.941-16.68,2.926-25.162,2.926
	c-60.294,0-109.347-49.055-109.347-109.35c0-8.313,2.559-23.373,14.75-47.914c1.225-2.467,4.046-3.691,6.687-2.908
	c2.639,0.785,4.33,3.357,4.007,6.092c-0.28,2.361-0.421,4.584-0.421,6.607c0,64.629,45.966,120.77,109.298,133.484
	c2.608,0.525,4.501,2.795,4.546,5.455C276.051,404.874,274.237,407.206,271.647,407.819z"/>
</svg>
