<?xml version="1.0" standalone="no"?>
<!DOCTYPE svg PUBLIC "-//W3C//DTD SVG 1.1//EN" "http://www.w3.org/Graphics/SVG/1.1/DTD/svg11.dtd" >
<svg xmlns="http://www.w3.org/2000/svg">
<metadata>
This is a custom SVG font generated by IcoMoon.
0
</metadata>
<defs>
<font id="Android-Action-Bar-Icon-Pack" horiz-adv-x="512" >
<font-face units-per-em="512" ascent="480" descent="-32" />
<missing-glyph horiz-adv-x="512" />
<glyph unicode="&#xe001;" d="M 245.495,54.613 274.825,83.959 155.52,203.255 435.895,203.255 435.895,244.745 155.52,244.745 274.825,364.053 245.495,393.387 76.105,224.00 245.495,54.613 z"  />
<glyph unicode="&#xe002;" d="M 444.16,338.987 422.063,361.088 194.133,131.093 89.975,234.667 67.895,212.535 194.295,86.878 216.427,108.962 216.32,109.069 444.16,338.987 z"  />
<glyph unicode="&#xe003;" d="M 399.202,345.118 377.105,367.215 256.00,246.08 134.827,367.215 112.747,345.118 233.869,224.00 112.747,102.878 134.827,80.747 256.00,201.92 377.105,80.747 399.202,102.878 278.08,224.00 399.202,345.118 z"  />
<glyph unicode="&#xe004;" d="M 124.642,139.84 256.00,253.227 387.358,139.84 414.507,171.285 256.00,308.109 97.481,171.285 124.642,139.84 z"  />
<glyph unicode="&#xe005;" d="M 387.358,308.16 256.00,194.718 124.642,308.16 97.493,276.702 256.00,139.891 414.528,276.702 387.358,308.16 z"  />
<glyph unicode="&#xe006;" d="M 266.453,393.387 237.133,364.041 356.425,244.745 76.053,244.745 76.053,203.255 356.425,203.255 237.133,83.947 266.453,54.613 435.895,223.949 266.453,393.387 z"  />
<glyph unicode="&#xe007;" d="M 167.36,362.347 286.827,224.00 167.36,85.653 200.486,57.067 344.589,224.00 200.486,390.95 167.36,362.347 z"  />
<glyph unicode="&#xe008;" d="M 344.64,85.653 225.225,223.949 344.64,362.347 311.526,390.933 167.411,223.949 311.526,57.041 344.64,85.653 z"  />
<glyph unicode="&#xe009;" d="M 313.122,58.082 C 390.08,82.394 440.107,155.469 434.825,235.733 L 394.453,233.067 C 398.507,171.469 360.081,115.362 300.996,96.678 C 269.884,86.865 236.373,88.913 206.878,101.909 L 250.505,148.638 L 129.067,144.533 L 139.362,29.824 L 178.133,71.236 C 203.789,57.429 232.213,50.048 260.826,50.048 C 278.40,50.048 296.09,52.74 313.122,58.082 Z M 314.62,346.987 L 270.899,300.322 L 392.427,304.375 L 382.135,419.093 L 343.424,377.758 C 302.016,400.107 253.282,405.013 208.269,390.827 C 131.413,366.562 81.387,293.547 86.613,213.171 L 126.933,215.838 C 122.987,277.547 161.335,333.653 220.425,352.213 C 251.575,362.078 285.035,360.055 314.62,346.987 Z"  />
<glyph unicode="&#xe010;" d="M 269.069,308.958 C 267.388,310.251 265.434,311.172 263.189,311.689 260.966,312.201 258.581,312.465 256.06,312.465 253.525,312.465 251.127,312.201 248.858,311.689 246.588,311.172 244.617,310.251 242.935,308.958 241.259,307.665 239.94,305.941 238.963,303.825 238.003,301.70 237.513,299.034 237.513,295.834 237.513,292.71 238.003,290.065 238.963,287.919 239.94,285.747 241.259,284.011 242.935,282.714 244.617,281.425 246.588,280.474 248.858,279.927 251.127,279.369 253.525,279.087 256.06,279.087 258.581,279.087 260.966,279.369 263.189,279.927 265.434,280.474 267.388,281.425 269.069,282.714 270.737,284.011 272.085,285.747 273.075,287.919 274.074,290.065 274.586,292.71 274.586,295.834 274.586,299.034 274.074,301.70 273.075,303.825 272.085,305.941 270.737,307.665 269.069,308.958M 256.00,81.067 C 177.225,81.067 113.122,145.173 113.122,224.00 113.122,302.775 177.225,366.933 256.00,366.933 334.827,366.933 398.933,302.775 398.933,224.00 398.933,145.173 334.827,81.067 256.00,81.067 M 256.00,391.04 C 163.895,391.04 89.015,316.105 89.015,224.00 89.015,131.878 163.895,56.951 256.00,56.951 348.105,56.951 423.04,131.878 423.04,224.00 423.04,316.105 348.105,391.04 256.00,391.04M 238.989,138.773 273.011,138.773 273.011,263.573 238.989,263.573 238.989,138.773 z"  />
<glyph unicode="&#xe011;" d="M 206.613,94.985 C 206.613,88.367 207.603,82.709 209.596,78.007 C 211.575,73.301 214.332,69.402 217.856,66.317 C 221.385,63.232 225.54,60.992 230.319,59.588 C 235.093,58.197 240.201,57.498 245.641,57.498 C 250.79,57.498 255.68,58.197 260.322,59.588 C 264.96,60.992 269.013,63.232 272.533,66.317 C 276.053,69.402 278.878,73.301 280.909,78.007 C 282.987,82.709 284.002,88.367 284.002,94.985 C 284.002,101.892 282.987,107.738 280.909,112.516 C 278.878,117.295 276.053,121.152 272.533,124.096 C 269.013,127.04 264.96,129.165 260.322,130.487 C 255.68,131.814 250.79,132.476 245.641,132.476 C 240.201,132.476 235.093,131.814 230.319,130.487 C 225.54,129.165 221.385,127.04 217.856,124.096 C 214.332,121.152 211.575,117.295 209.596,112.516 C 207.603,107.738 206.613,101.892 206.613,94.985 Z M 213.888,170.402 L 272.107,170.402 L 272.107,183.629 C 272.107,188.322 272.533,192.427 273.335,195.891 C 274.133,199.305 275.627,202.667 277.867,205.922 C 280.055,209.122 283.093,212.587 286.989,216.162 C 290.88,219.789 295.945,224.00 302.08,228.851 C 310.187,235.307 317.278,241.442 323.362,247.253 C 329.493,253.069 334.558,259.093 338.611,265.335 C 342.669,271.573 345.707,278.345 347.733,285.653 C 349.815,292.907 350.827,301.175 350.827,310.451 C 350.827,323.093 348.587,334.345 344.107,344.213 C 339.627,354.027 333.175,362.402 324.80,369.335 C 316.425,376.213 306.24,381.491 294.135,385.118 C 282.078,388.693 268.587,390.507 253.585,390.507 C 245.641,390.507 237.559,389.76 229.321,388.267 C 221.09,386.825 212.966,384.802 204.954,382.242 C 196.945,379.678 189.227,376.691 181.803,373.389 C 174.374,370.078 167.501,366.613 161.178,362.935 L 183.676,314.185 C 196.169,320.371 208.273,325.602 219.951,329.869 C 231.642,334.135 242.556,336.269 252.702,336.269 C 264.32,336.269 272.96,333.547 278.613,328.107 C 284.267,322.667 287.091,315.733 287.091,307.362 C 287.091,301.922 286.507,297.122 285.333,293.013 C 284.16,288.909 282.24,284.958 279.625,281.225 C 276.958,277.491 273.493,273.707 269.227,269.867 C 264.96,266.027 259.759,261.709 253.585,256.853 C 246.528,251.255 240.495,245.867 235.499,240.64 C 230.502,235.413 226.428,230.08 223.258,224.533 C 220.096,219.038 217.749,213.227 216.209,207.147 C 214.66,201.011 213.888,194.24 213.888,186.718 L 213.888,170.402 L 213.888,170.402 Z"  />
<glyph unicode="&#xe012;" d="M 138.189,204.535 C 100.301,242.453 100.301,303.893 138.189,341.815 176.102,379.733 237.495,379.678 275.413,341.815 313.335,303.893 313.335,242.475 275.413,204.535 237.495,166.647 176.077,166.647 138.189,204.535 M 423.945,105.707 359.091,170.586 C 353.387,176.282 343.04,175.744 332.693,170.347 L 304.375,198.639 C 341.278,246.814 337.758,316.002 293.709,360.055 245.705,408.055 167.91,408.055 119.91,360.055 71.949,312.055 71.949,234.266 119.91,186.266 164.006,142.187 233.173,138.718 281.335,175.595 L 309.653,147.307 C 304.269,136.909 303.68,126.613 309.389,120.909 L 374.293,56.00 C 382.507,47.842 400.269,52.318 413.973,66.027 427.678,79.735 432.158,97.493 423.945,105.707"  />
<glyph unicode="&#xe013;" d="M 448.055,106.611 384.055,106.611 384.055,85.278 448.055,85.278 448.055,106.611 z M 288.00,106.611 63.949,106.611 63.949,85.278 288.00,85.278 288.00,106.611 z M 448.055,234.667 224.00,234.667 224.00,213.333 448.055,213.333 448.055,234.667 z M 127.945,234.667 63.949,234.667 63.949,213.333 127.945,213.333 127.945,234.667 z M 448.055,362.722 384.055,362.722 384.055,341.389 448.055,341.389 448.055,362.722 z M 288.00,362.722 63.949,362.722 63.949,341.389 288.00,341.389 288.00,362.722 z M 331.307,421.389 C 316.322,421.389 304.00,409.118 304.00,394.078 L 304.00,309.973 C 304.00,294.933 316.322,282.667 331.307,282.667 L 340.745,282.667 C 355.785,282.667 368.055,294.933 368.055,309.973 L 368.055,394.078 C 368.055,409.118 355.785,421.389 340.745,421.389 L 331.307,421.389 z M 331.307,165.333 C 316.322,165.333 304.00,153.067 304.00,137.971 L 304.00,53.918 C 304.00,38.878 316.322,26.615 331.307,26.615 L 340.745,26.615 C 355.678,26.615 368.055,38.878 368.055,53.918 L 368.055,137.971 C 368.055,153.067 355.678,165.333 340.745,165.333 L 331.307,165.333 z M 171.307,293.333 C 156.267,293.333 143.945,281.067 143.945,266.027 L 143.945,181.973 C 143.945,166.933 156.267,154.667 171.307,154.667 L 180.693,154.667 C 195.678,154.667 208.00,166.933 208.00,181.973 L 208.00,266.027 C 208.00,281.067 195.678,293.333 180.693,293.333 L 171.307,293.333 z"  />
<glyph unicode="&#xe020;" d="M 387.52,334.669 C 359.633,334.669 336.759,335.898 321.813,340.07 296.802,350.886 264.802,357.099 241.493,360.444 197.227,366.763 178.453,364.335 164.693,360.704 L 164.638,360.465 C 157.389,358.345 152.107,353.22 149.653,344.388 147.307,336.073 148.638,330.726 153.387,327.642 L 149.278,327.10 C 137.335,324.881 128.802,318.989 127.415,305.003 126.455,294.997 129.651,288.631 136.055,285.965 124.48,285.764 115.307,280.269 113.438,265.225 111.735,251.469 120.055,242.509 131.52,242.027 121.173,240.589 113.869,233.60 113.869,220.322 113.869,205.705 123.413,196.587 137.545,195.362 L 137.758,195.362 C 154.829,193.067 182.775,192.371 199.411,191.305 202.773,179.627 201.60,175.411 197.069,165.013 181.227,147.947 172.907,130.88 175.411,107.20 176.32,98.56 184.32,84.80 190.345,83.895 200.853,82.295 204.002,90.722 211.469,103.202 219.362,116.373 223.202,119.68 232.371,135.467 241.493,151.253 242.773,154.987 276.053,178.295 306.291,199.467 302.242,207.411 337.186,214.029 343.471,215.253 362.133,218.453 387.52,218.453 393.749,218.453 398.805,232.162 398.805,276.535 398.805,320.956 393.749,334.669 387.52,334.669"  />
<glyph unicode="&#xe021;" d="M 256.00,317.867 C 268.284,345.527 289.792,372.322 320.533,372.322 338.453,372.322 354.987,363.563 370.133,346.095 384.533,329.527 391.787,312.866 391.787,296.102 391.787,271.057 384.909,244.851 371.20,217.387 359.36,193.758 342.345,168.853 320.158,142.613 303.369,122.773 281.754,100.211 255.30,74.935 232.363,96.909 211.819,118.771 193.60,140.48 171.413,167.202 154.133,192.162 141.867,215.305 127.467,242.722 120.269,267.273 120.269,289.003 120.269,309.803 126.613,328.589 139.413,345.357 153.335,363.814 170.347,373.013 190.455,373.013 222.084,373.013 243.947,345.988 256.00,317.867"  />
<glyph unicode="&#xe022;" d="M 380.48,206.029 C 390.822,207.471 398.14,214.438 398.14,227.742 398.14,242.321 388.578,251.452 374.438,252.698 L 374.208,252.681 C 357.167,254.993 329.22,255.684 312.589,256.747 309.227,268.373 310.40,272.64 314.935,283.042 330.773,300.109 339.081,317.12 336.593,340.851 335.689,349.491 327.701,363.20 321.60,364.16 311.147,365.76 308.002,357.278 300.535,344.802 292.638,331.678 288.802,328.371 279.625,312.589 270.507,296.747 269.227,293.013 235.947,269.76 205.705,248.589 209.707,240.64 174.775,233.997 168.533,232.785 149.867,229.615 124.48,229.615 118.242,229.615 113.173,215.898 113.173,171.477 113.173,127.091 118.242,113.387 124.48,113.387 152.371,113.387 175.253,112.162 190.187,107.947 215.147,97.173 247.202,90.935 270.507,87.573 314.722,81.28 333.508,83.682 347.29,87.36 L 347.337,87.573 C 354.594,89.651 359.868,94.827 362.347,103.629 364.681,111.945 363.328,117.333 358.613,120.371 L 362.709,120.909 C 374.635,123.145 383.219,129.067 384.563,143.04 385.532,153.028 382.374,159.407 375.97,162.078 387.541,162.266 396.689,167.774 398.554,182.827 400.273,196.591 391.91,205.542 380.48,206.029"  />
<glyph unicode="&#xe023;" d="M 361.655,57.707 263.787,116.425 256.00,121.122 256.00,382.933 300.638,277.922 304.213,269.547 313.301,268.745 426.935,258.722 340.907,183.787 334.029,177.758 336.073,168.909 361.655,57.707 z M 463.893,270.72 314.641,283.891 256.00,421.76 197.333,283.891 48.051,270.72 161.067,172.322 127.467,26.274 256.00,103.36 384.491,26.274 350.895,172.322 463.893,270.72 z"  />
<glyph unicode="&#xe024;" d="M 256.00,422.451 L 197.12,284.053 L 47.305,270.878 L 160.747,172.109 L 127.04,25.545 L 256.00,102.933 L 384.96,25.545 L 351.253,172.109 L 464.64,270.878 L 314.88,284.053 L 256.00,422.451 L 256.00,422.451 Z"  />
<glyph unicode="&#xe025;" d="M 256.00,421.76 197.333,283.891 48.107,270.72 161.122,172.267 127.467,26.24 256.00,103.309 384.533,26.24 350.933,172.267 463.945,270.72 314.667,283.891 256.00,421.76 z M 256.00,382.899 300.668,277.922 304.239,269.491 313.335,268.693 426.987,258.667 340.958,183.735 334.08,177.758 336.107,168.853 361.655,57.707 263.825,116.373 256.00,121.067 248.175,116.373 150.349,57.707 175.893,168.853 177.971,177.758 171.093,183.735 85.013,258.667 198.669,268.693 207.782,269.491 211.354,277.922 256.00,382.899 z"  />
<glyph unicode="&#xe030;" d="M 392.802,211.093 C 390.037,248.414 358.946,277.867 320.909,277.867 306.24,277.867 292.587,273.442 281.122,265.869 272.909,297.92 243.947,321.655 209.28,321.655 168.269,321.655 135.04,288.427 135.04,247.428 135.04,244.403 135.309,241.446 135.629,238.502 135.202,238.524 134.771,238.571 134.349,238.571 103.36,238.571 78.238,213.436 78.238,182.438 78.238,152.371 101.867,127.893 131.575,126.455 L 131.575,126.293 389.632,126.293 389.632,126.507 C 390.208,126.455 390.746,126.293 391.322,126.293 414.788,126.293 433.792,145.335 433.792,168.789 433.792,191.744 415.573,210.313 392.802,211.093"  />
<glyph unicode="&#xe031;" d="M 420.053,281.655 91.947,281.655 58.402,172.267 46.08,182.878 76.053,297.536 420.053,297.536 420.053,323.989 196.638,323.989 163.682,385.118 24.909,385.118 24.909,62.878 420.053,62.878 487.091,281.655 420.053,281.655 z"  />
<glyph unicode="&#xe032;" d="M 416.00,53.333 96.00,53.333 C 90.082,53.333 85.333,58.082 85.333,64.00 L 85.333,362.667 C 85.333,368.589 90.082,373.333 96.00,373.333 L 416.00,373.333 C 421.914,373.333 426.667,368.589 426.667,362.667 L 426.667,64.00 C 426.667,58.082 421.914,53.333 416.00,53.333 M 106.667,74.667 405.333,74.667 405.333,352.00 106.667,352.00 106.667,74.667 zM 160.00,394.667 L 160.00,330.667 L 202.667,330.667 L 202.667,394.667 L 160.00,394.667 L 160.00,394.667 ZM 309.333,394.667 L 309.333,330.667 L 352.00,330.667 L 352.00,394.667 L 309.333,394.667 L 309.333,394.667 ZM 202.667,288.00 L 202.667,245.333 L 245.333,245.333 L 245.333,288.00 L 202.667,288.00 L 202.667,288.00 ZM 266.667,288.00 L 266.667,245.333 L 309.333,245.333 L 309.333,288.00 L 266.667,288.00 L 266.667,288.00 ZM 330.667,288.00 L 330.667,245.333 L 373.333,245.333 L 373.333,288.00 L 330.667,288.00 L 330.667,288.00 ZM 202.667,224.00 L 202.667,181.333 L 245.333,181.333 L 245.333,224.00 L 202.667,224.00 L 202.667,224.00 ZM 138.667,224.00 L 138.667,181.333 L 181.333,181.333 L 181.333,224.00 L 138.667,224.00 L 138.667,224.00 ZM 256.00,234.667 L 256.00,170.667 L 320.00,170.667 L 320.00,234.667 L 256.00,234.667 L 256.00,234.667 ZM 330.667,224.00 L 330.667,181.333 L 373.333,181.333 L 373.333,224.00 L 330.667,224.00 L 330.667,224.00 ZM 202.667,160.00 L 202.667,117.333 L 245.333,117.333 L 245.333,160.00 L 202.667,160.00 L 202.667,160.00 ZM 138.667,160.00 L 138.667,117.333 L 181.333,117.333 L 181.333,160.00 L 138.667,160.00 L 138.667,160.00 ZM 266.667,160.00 L 266.667,117.333 L 309.333,117.333 L 309.333,160.00 L 266.667,160.00 L 266.667,160.00 Z"  />
<glyph unicode="&#xe033;" d="M 205.333,101.973 185.958,121.348 322.291,257.707 341.653,238.345 205.333,101.973 z M 142.933,164.373 280.107,301.602 299.469,282.185 162.283,144.998 142.933,164.373 z M 129.545,70.293 C 120.213,70.293 112.691,77.824 112.691,87.13 112.691,96.418 120.213,103.957 129.545,103.957 138.829,103.957 146.347,96.418 146.347,87.13 146.347,77.824 138.829,70.293 129.545,70.293 M 282.611,384.747 82.88,186.615 82.56,39.467 229.675,39.842 429.44,237.973 282.611,384.747 zM 202.773,408.533 113.545,244.211 256.747,382.869 202.773,408.533 z"  />
<glyph unicode="&#xe034;" d="M 356.105,124.535 356.105,195.469 333.922,195.469 333.922,124.535 264.051,124.535 264.051,102.336 333.922,102.336 333.922,31.415 356.105,31.415 356.105,102.336 426.027,102.336 426.027,124.535 356.105,124.535 zM 177.655,187.627 163.183,202.095 265.011,303.945 279.467,289.442 177.655,187.627 z M 131.038,234.236 233.493,336.691 247.949,322.24 145.51,219.755 131.038,234.236 z M 121.067,163.964 C 114.082,163.964 108.48,169.596 108.48,176.533 108.48,183.475 114.082,189.103 121.067,189.103 127.996,189.103 133.619,183.475 133.619,176.533 133.619,169.596 127.996,163.964 121.067,163.964 M 235.362,398.771 86.187,250.825 85.973,140.949 195.84,141.21 345.011,289.173 235.362,398.771 zM 175.735,416.533 109.12,293.815 216.043,397.363 175.735,416.533 z"  />
<glyph unicode="&#xe035;" d="M 52.48,310.613 459.52,310.613 459.52,350.72 52.48,350.72 52.48,310.613 zM 52.48,203.947 335.842,203.947 335.842,244.053 52.48,244.053 52.48,203.947 zM 52.48,97.28 201.173,97.28 201.173,137.387 52.48,137.387 52.48,97.28 z"  />
<glyph unicode="&#xe036;" d="M 232.482,245.227 L 232.482,356.907 L 120.802,356.907 L 120.802,245.227 L 232.482,245.227 L 232.482,245.227 ZM 391.202,245.227 L 391.202,356.907 L 279.518,356.907 L 279.518,245.227 L 391.202,245.227 L 391.202,245.227 ZM 232.482,91.093 L 232.482,202.773 L 120.802,202.773 L 120.802,91.093 L 232.482,91.093 L 232.482,91.093 ZM 391.202,91.093 L 391.202,202.773 L 279.518,202.773 L 279.518,91.093 L 391.202,91.093 L 391.202,91.093 Z"  />
<glyph unicode="&#xe037;" d="M 365.547,318.933 147.307,318.933 147.307,338.509 365.547,338.509 365.547,318.933 z M 365.547,267.149 147.307,267.149 147.307,286.72 365.547,286.72 365.547,267.149 z M 365.547,213.653 147.307,213.653 147.307,234.935 365.547,234.935 365.547,213.653 z M 364.693,161.869 146.453,161.869 146.453,182.293 364.693,182.293 364.693,161.869 z M 364.693,110.933 147.307,110.933 147.307,130.505 364.693,130.505 364.693,110.933 z M 328.533,395.678 115.947,395.678 115.947,52.318 396.053,52.318 396.053,395.678 328.533,395.678 z"  />
<glyph unicode="&#xe040;" d="M 79.893,162.453 79.876,162.466 C 61.79,178.829 50.581,200.55 48.269,223.629 45.952,246.72 52.779,266.88 67.558,283.20 82.325,299.52 103.253,309.175 126.473,309.12 L 400.055,308.958 C 416.853,309.013 432.589,301.547 444.373,289.173 455.253,277.76 462.187,263.842 463.893,247.04 467.358,212.369 444.373,181.653 412.693,181.675 L 183.091,181.632 C 163.789,181.641 146.24,200.128 145.971,222.135 145.758,243.093 157.12,261.278 175.467,261.333 L 363.307,261.175 363.469,234.987 181.76,235.093 C 177.813,235.093 171.149,231.68 170.829,222.135 170.667,216.533 175.36,208.179 183.305,208.213 L 410.185,208.068 C 428.105,208.081 440.96,226.133 438.827,247.04 437.76,257.971 433.493,266.133 426.935,273.067 420.535,279.842 412.002,283.093 402.56,283.093 L 128.994,283.255 C 112.448,283.307 97.54,277.227 87.031,265.60 76.501,253.973 73.109,240.589 73.284,223.629 73.459,207.104 82.935,191.71 95.799,180.07 108.685,168.401 126.899,165.534 143.411,165.547 L 384.64,165.402 384.533,138.859 145.92,139.008 C 122.709,139.012 97.958,146.112 79.893,162.453"  />
<glyph unicode="&#xe041;" d="M 353.549,151.04 297.173,207.467 240.747,151.027 221.171,170.645 277.547,227.093 221.171,283.469 240.747,303.091 297.173,246.669 353.549,303.091 373.15,283.469 316.757,227.038 373.15,170.645 353.549,151.04 z M 31.309,223.091 142.135,112.567 480.691,112.567 480.691,335.411 142.135,335.411 31.309,223.091 z"  />
<glyph unicode="&#xe042;" d="M 159.945,352.055 416.00,352.055 416.00,31.949 159.945,31.949 159.945,352.055 z M 384.00,320.00 192.00,320.00 192.00,63.945 384.00,63.945 384.00,320.00 z M 295.147,250.667 224.00,250.667 224.00,261.333 295.147,261.333 295.147,250.667 z M 352.00,218.667 223.949,218.667 223.949,229.333 352.00,229.333 352.00,218.667 z M 316.48,186.667 224.00,186.667 224.00,197.333 316.48,197.333 316.48,186.667 z M 295.147,154.667 224.00,154.667 224.00,165.333 295.147,165.333 295.147,154.667 z M 344.909,122.611 223.949,122.611 223.949,133.278 344.909,133.278 344.909,122.611 z M 320.055,384.055 127.945,384.055 127.945,127.945 143.945,127.945 143.945,95.945 127.945,95.945 95.945,95.945 95.945,416.055 352.00,416.055 352.00,384.055 352.00,368.055 320.055,368.055 320.055,384.055 z"  />
<glyph unicode="&#xe043;" d="M 388.16,338.453 C 382.511,334.34 377.711,327.893 375.42,323.358 374.246,321.007 372.651,318.182 370.62,314.662 368.858,311.514 366.72,307.789 364.224,303.202 351.151,279.202 337.869,263.573 337.766,263.467 337.66,263.36 330.347,254.989 322.24,247.735 276.907,267.20 202.667,298.88 195.52,300.693 184.853,303.36 174.669,295.842 174.242,295.514 L 169.545,291.994 174.558,288.956 283.84,222.613 174.558,156.322 169.545,153.28 174.242,149.76 C 174.669,149.44 184.853,141.922 195.52,144.589 202.615,146.347 276.907,178.078 322.24,197.547 330.347,190.242 337.66,181.867 337.711,181.815 337.869,181.653 351.151,166.08 364.224,142.029 366.72,137.438 368.858,133.705 370.671,130.56 372.651,127.04 374.246,124.267 375.42,121.92 377.711,117.389 382.511,110.933 388.16,106.773 404.911,94.507 428.587,98.133 440.858,114.88 445.602,121.387 448.107,129.015 448.107,137.067 448.107,148.962 442.402,160.32 432.858,167.467 428.753,170.505 424.055,172.693 419.627,173.705 416.055,174.989 413.338,175.411 410.466,175.893 406.191,176.64 401.387,177.442 391.68,181.333 372.804,188.907 357.013,202.935 356.753,203.20 352.158,207.04 347.678,213.76 343.735,222.613 347.678,231.518 352.158,238.242 356.86,242.185 357.013,242.291 372.753,256.32 391.68,263.893 401.387,267.789 406.191,268.638 410.466,269.333 413.338,269.815 416.055,270.293 419.255,271.411 424.055,272.589 428.753,274.773 432.96,277.815 442.453,284.958 448.107,296.269 448.107,308.156 448.107,316.215 445.602,323.895 440.858,330.342 428.535,347.089 404.911,350.771 388.16,338.453 M 412.911,324.156 C 417.233,323.46 421.013,321.173 423.578,317.70 425.66,314.88 426.722,311.569 426.722,308.109 426.722,302.933 424.226,297.967 420.053,294.933 416.533,292.369 412.271,291.302 407.953,291.994 403.678,292.634 399.898,294.933 397.338,298.453 395.255,301.274 394.193,304.58 394.193,308.049 394.193,313.229 396.651,318.127 400.806,321.173 404.326,323.785 408.653,324.796 412.911,324.156 M 304.055,222.613 C 304.055,229.653 309.76,235.362 316.80,235.362 323.789,235.362 329.493,229.653 329.493,222.613 329.493,215.629 323.789,209.92 316.80,209.92 309.76,209.92 304.055,215.629 304.055,222.613 M 420.053,150.293 C 424.226,147.255 426.722,142.345 426.722,137.173 426.722,133.705 425.66,130.402 423.578,127.573 421.013,124.053 417.233,121.758 412.911,121.122 408.653,120.427 404.326,121.493 400.806,124.053 396.651,127.091 394.193,132.053 394.193,137.229 394.193,140.693 395.255,144.00 397.338,146.829 402.62,154.027 412.804,155.627 420.053,150.293M 319.893,64.00 95.893,64.00 95.893,384.00 319.893,384.00 319.893,320.00 351.893,320.00 351.893,416.00 63.893,416.00 63.893,32.00 319.893,32.00 351.893,32.00 351.893,128.00 319.893,128.00 319.893,64.00 z"  />
<glyph unicode="&#xe044;" d="M 367.573,256.853 C 367.33,258.351 366.409,259.823 365.035,261.227 353.946,249.963 309.333,248.098 256.00,248.098 202.667,248.098 158.08,249.963 146.935,261.227 145.60,259.823 144.747,258.351 144.427,256.853 L 144.32,256.853 144.32,256.043 C 144.32,255.945 144.32,255.851 144.32,255.753 144.32,255.535 144.371,255.343 144.371,255.134 L 153.067,77.227 153.122,77.227 C 153.869,63.309 169.869,42.24 256.00,42.24 342.153,42.24 358.135,63.309 358.886,77.227 L 358.95,77.227 367.642,255.134 C 367.659,255.343 367.723,255.535 367.723,255.753 367.723,255.851 367.659,255.945 367.659,256.043 L 367.723,256.853 367.573,256.853 zM 224.853,351.68 221.35,351.462 221.35,368.858 C 221.35,376.465 222.409,382.694 223.663,382.694 L 239.834,382.694 267.533,382.694 283.678,382.694 C 284.958,382.694 285.973,376.465 285.973,368.858 L 285.973,351.744 C 276.361,352.239 266.342,352.555 255.974,352.555 245.227,352.555 234.79,352.239 224.853,351.68 M 309.069,349.943 309.069,391.94 C 309.069,399.526 302.878,405.815 295.202,405.815 L 212.096,405.815 C 204.518,405.815 198.281,399.526 198.281,391.94 L 198.281,349.461 C 157.171,344.802 129.067,335.36 129.067,324.425 L 129.067,303.663 C 129.067,299.401 133.389,295.36 141.12,291.678 161.387,282.185 205.193,275.575 255.974,275.575 306.773,275.575 350.613,282.185 370.88,291.678 378.56,295.36 382.933,299.401 382.933,303.663 L 382.933,324.425 C 382.933,335.744 352.64,345.489 309.069,349.943"  />
<glyph unicode="&#xe045;" d="M 249.387,313.438 124.002,186.773 C 124.002,186.773 134.771,176.589 162.611,177.813 168.533,165.171 174.135,150.242 206.622,134.985 205.312,108.48 218.065,93.602 218.065,93.602 L 343.573,220.16 C 342.025,237.44 329.122,258.935 308.638,279.177 280.619,306.94 257.178,312.346 249.387,313.438M 430.827,404.002 C 394.005,434.18 368.533,425.335 355.575,412.843 351.091,408.486 336.853,397.013 326.40,388.668 338.133,387.913 361.707,382.852 387.584,357.248 413.316,331.785 418.231,309.973 418.509,297.813 427.26,309.175 440.994,326.882 443.119,329.011 457.293,343.411 467.648,373.824 430.827,404.002M 144.269,162.667 C 119.42,162.603 113.609,168.166 113.609,168.166 L 55.893,23.573 199.949,83.413 C 199.949,83.413 188.506,106.027 188.80,118.157 178.735,121.357 152.35,137.391 144.269,162.667M 310.242,374.771 295.94,360.704 C 295.94,360.704 323.243,356.262 355.601,324.198 375.893,304.055 386.88,282.722 388.80,267.84 L 402.453,281.442 C 402.453,281.442 407.202,306.078 372.105,341.167 337.655,375.646 310.242,374.771 310.242,374.771M 283.255,343.147 269.589,329.673 C 269.589,329.673 295.744,325.423 326.694,294.694 346.133,275.413 356.642,255.04 358.507,240.747 L 371.575,253.815 C 371.575,253.815 376.107,277.389 342.507,310.993 309.542,343.991 283.255,343.147 283.255,343.147"  />
<glyph unicode="&#xe046;" d="M 79.573,277.653 79.573,93.069 432.427,93.069 432.427,277.653 256.00,189.922 79.573,277.653 zM 79.573,354.935 79.573,305.818 256.00,218.133 432.427,305.818 432.427,354.935 79.573,354.935 z"  />
<glyph unicode="&#xe047;" d="M 377.387,140.109 312.32,140.109 312.32,76.105 128.853,76.105 128.853,292.322 377.387,292.322 377.387,140.109 z M 324.689,342.451 324.689,393.173 298.291,393.173 298.291,342.451 214.40,342.451 214.40,393.173 188.002,393.173 188.002,342.451 107.093,342.451 107.093,292.322 111.838,292.322 111.838,54.878 325.568,54.878 399.228,128.525 399.228,292.322 404.851,292.322 404.851,342.451 324.689,342.451 z"  />
<glyph unicode="&#xe048;" d="M 241.387,163.627 241.387,320.055 289.344,320.055 212.467,424.909 135.573,320.055 184.00,320.055 184.00,163.627 241.387,163.627 zM 327.945,127.945 327.945,284.373 270.613,284.373 270.613,127.945 222.613,127.945 299.52,23.091 376.405,127.945 327.945,127.945 z"  />
<glyph unicode="&#xe049;" d="M 284.80,113.387 C 298.436,98.50 365.705,60.066 365.705,60.066 L 391.518,111.113 C 391.518,111.113 283.29,163.29 284.80,215.838 L 284.80,281.011 284.757,281.335 332.527,281.335 255.962,385.758 179.413,281.335 179.469,281.335 227.255,281.335 227.20,281.011 227.20,215.838 C 228.693,163.29 120.482,111.113 120.482,111.113 L 146.295,60.066 C 146.295,60.066 213.602,98.50 227.20,113.387 L 255.829,138.449 284.80,113.387 z"  />
<glyph unicode="&#xe04a;" d="M 442.935,239.629 271.629,239.629 271.629,410.935 240.371,410.935 240.371,239.629 69.069,239.629 69.069,208.367 240.371,208.367 240.371,37.069 271.629,37.069 271.629,208.367 442.935,208.367 442.935,239.629 z"  />
<glyph unicode="&#xe04b;" d="M 143.945,98.402 143.927,98.402 C 123.132,98.402 103.599,106.496 88.909,121.19 74.24,135.898 66.082,155.413 66.082,176.213 66.082,197.013 74.185,216.533 88.909,231.253 L 262.029,404.373 C 272.695,415.04 286.507,420.267 301.069,419.038 314.453,417.975 327.735,411.469 338.453,400.802 360.482,378.722 362.133,344.427 342.08,324.373 L 196.732,179.038 C 184.525,166.827 165.568,168.051 151.569,182.029 138.304,195.307 136.977,215.573 148.587,227.20 L 267.469,346.078 283.307,330.24 164.442,211.362 C 161.95,208.853 162.688,202.56 167.403,197.815 168.751,196.48 175.889,189.867 180.881,194.88 L 326.242,340.215 C 337.545,351.573 335.893,371.627 322.611,384.96 315.678,391.893 307.362,396.053 299.255,396.693 291.307,397.44 283.84,394.56 277.867,388.535 L 104.725,215.411 C 94.251,204.962 88.482,190.989 88.482,176.213 88.482,161.442 94.276,147.511 104.751,137.033 115.213,126.575 129.122,120.806 143.927,120.806 158.75,120.806 172.672,126.554 183.121,137.033 L 333.013,286.878 348.851,271.04 198.933,121.19 C 184.269,106.496 164.727,98.402 143.945,98.402M 376.00,121.92 376.00,192.853 353.809,192.853 353.809,121.92 283.947,121.92 283.947,99.725 353.809,99.725 353.809,28.80 376.00,28.80 376.00,99.725 445.867,99.725 445.867,121.92 376.00,121.92 z"  />
<glyph unicode="&#xe04c;" d="M 13.116,343.68 13.116,158.933 366.234,158.933 366.234,343.68 189.70,255.893 13.116,343.68 zM 13.116,421.013 13.116,371.849 189.70,284.109 366.234,371.849 366.234,421.013 13.116,421.013 zM 428.322,121.015 428.322,192.64 405.914,192.64 405.914,121.015 335.305,121.015 335.305,98.607 405.914,98.607 405.914,26.987 428.322,26.987 428.322,98.607 498.88,98.607 498.88,121.015 428.322,121.015 z"  />
<glyph unicode="&#xe04d;" d="M 475.84,137.387 404.535,137.387 404.535,209.758 381.867,209.758 381.867,137.387 310.613,137.387 310.613,114.752 381.867,114.752 381.867,42.402 404.535,42.402 404.535,114.752 475.84,114.752 475.84,137.387 zM 91.947,319.893 121.886,319.893 121.886,349.363 234.718,349.363 323.413,349.363 323.413,185.387 91.947,185.387 91.947,319.893 z M 342.989,165.76 342.989,368.973 234.718,368.973 121.886,368.973 121.886,405.602 36.16,405.602 36.16,319.893 72.341,319.893 72.341,165.76 342.989,165.76 zM 118.293,254.775 297.28,254.775 297.28,272.213 118.293,272.213 118.293,254.775 zM 118.293,294.08 297.28,294.08 297.28,311.518 118.293,311.518 118.293,294.08 z"  />
<glyph unicode="&#xe04e;" d="M 397.069,107.093 397.069,178.718 374.66,178.718 374.66,107.093 304.107,107.093 304.107,84.689 374.66,84.689 374.66,13.12 397.069,13.12 397.069,84.689 467.627,84.689 467.627,107.093 397.069,107.093 zM 297.655,228.373 243.093,261.457 197.547,241.028 135.415,296.269 83.627,259.511 83.627,186.219 297.655,186.219 297.655,228.373 zM 314.88,164.425 64.00,164.425 64.00,415.253 314.88,415.253 314.88,164.425 z M 334.455,434.88 44.395,434.88 44.395,144.802 334.455,144.802 334.455,434.88 z"  />
<glyph unicode="&#xe04f;" d="M 96.00,15.949 96.00,400.055 224.00,400.055 C 224.00,417.758 238.345,432.055 256.00,432.055 273.707,432.055 288.055,417.758 288.055,400.055 L 416.055,400.055 416.055,15.949 96.00,15.949 z M 256.00,416.055 C 247.202,416.055 240.00,408.909 240.00,400.055 240.00,391.253 247.202,384.055 256.00,384.055 264.853,384.055 272.00,391.253 272.00,400.055 272.00,408.909 264.853,416.055 256.00,416.055 M 384.055,368.055 309.389,368.055 315.575,349.44 C 345.011,342.989 352.055,325.12 352.055,304.055 L 160.00,304.055 C 160.00,324.105 168.32,341.227 196.109,348.373 L 202.667,368.055 128.00,368.055 128.00,47.949 384.055,47.949 384.055,368.055 z M 266.667,250.667 160.00,250.667 160.00,261.333 266.667,261.333 266.667,250.667 z M 352.055,218.667 160.00,218.667 160.00,229.333 352.055,229.333 352.055,218.667 z M 298.722,186.667 160.00,186.667 160.00,197.333 298.722,197.333 298.722,186.667 z M 266.667,154.667 160.00,154.667 160.00,165.333 266.667,165.333 266.667,154.667 z M 341.389,122.667 160.00,122.667 160.00,133.333 341.389,133.333 341.389,122.667 z"  />
<glyph unicode="&#xe050;" d="M 386.935,149.653 320.96,189.687 265.813,164.966 190.613,231.787 127.945,187.324 127.945,98.633 386.935,98.633 386.935,149.653 zM 407.787,72.213 104.269,72.213 104.269,375.735 407.787,375.735 407.787,72.213 z M 80.482,48.482 431.518,48.482 431.518,399.518 80.482,399.518 80.482,48.482 z"  />
<glyph unicode="&#xe051;" d="M 256.00,132.587 C 272.388,132.587 285.581,144.567 290.539,159.087 291.806,162.816 293.355,165.734 293.355,169.941 293.355,190.558 276.599,207.305 256.00,207.305 235.396,207.305 218.645,190.558 218.645,169.941 218.645,165.734 219.541,162.807 220.796,159.078 225.766,144.567 239.612,132.587 256.00,132.587 M 255.663,116.698 C 226.479,116.698 202.735,139.767 201.545,168.661 L 64.00,237.069 64.00,36.48 448.00,36.48 448.00,237.069 309.815,168.67 C 308.599,139.767 284.864,116.698 255.663,116.698 M 255.663,411.52 64.00,316.267 64.00,260.958 96.107,260.958 96.107,298.027 416.107,298.027 416.107,260.958 448.00,260.958 448.00,316.267 255.663,411.52 z"  />
<glyph unicode="&#xe052;" d="M 399.202,345.118 377.105,367.215 256.00,246.08 134.827,367.215 112.747,345.118 233.869,224.00 112.747,102.878 134.827,80.747 256.00,201.92 377.105,80.747 399.202,102.878 278.08,224.00 399.202,345.118 z"  />
<glyph unicode="&#xe053;" d="M 377.813,236.851 134.187,236.851 134.187,71.04 377.813,71.04 377.813,236.851 z M 431.36,329.493 431.36,57.28 C 431.36,51.52 426.667,46.827 420.907,46.827 L 91.093,46.827 C 85.333,46.827 80.64,51.52 80.64,57.28 L 80.64,390.72 C 80.64,396.48 85.333,401.173 91.093,401.173 L 134.187,401.173 134.187,274.509 324.267,274.509 324.267,401.173 359.735,401.173 431.36,329.493 z M 345.813,133.013 159.253,133.013 159.253,112.107 345.813,112.107 345.813,133.013 z M 345.813,191.735 159.253,191.735 159.253,170.773 345.813,170.773 345.813,191.735 z M 294.029,293.922 221.44,293.922 221.44,387.149 294.029,387.149 294.029,293.922 z"  />
<glyph unicode="&#xe054;" d="M 426.667,53.333 L 426.667,32.00 L 448.00,32.00 L 448.00,53.333 L 426.667,53.333 L 426.667,53.333 Z M 426.667,93.495 L 426.667,73.387 L 448.00,73.387 L 448.00,93.495 L 426.667,93.495 L 426.667,93.495 Z M 426.667,133.653 L 426.667,113.545 L 448.00,113.545 L 448.00,133.653 L 426.667,133.653 L 426.667,133.653 Z M 426.667,173.815 L 426.667,153.707 L 448.00,153.707 L 448.00,173.815 L 426.667,173.815 L 426.667,173.815 Z M 426.667,213.973 L 426.667,193.869 L 448.00,193.869 L 448.00,213.973 L 426.667,213.973 L 426.667,213.973 Z M 426.667,254.135 L 426.667,234.027 L 448.00,234.027 L 448.00,254.135 L 426.667,254.135 L 426.667,254.135 Z M 426.667,294.293 L 426.667,274.185 L 448.00,274.185 L 448.00,294.293 L 426.667,294.293 L 426.667,294.293 Z M 426.667,334.451 L 426.667,314.347 L 448.00,314.347 L 448.00,334.451 L 426.667,334.451 L 426.667,334.451 Z M 426.667,374.613 L 426.667,354.509 L 448.00,354.509 L 448.00,374.613 L 426.667,374.613 L 426.667,374.613 Z M 426.667,416.00 L 426.667,394.667 L 448.00,394.667 L 448.00,416.00 L 426.667,416.00 L 426.667,416.00 Z M 386.509,53.333 L 386.509,32.00 L 406.613,32.00 L 406.613,53.333 L 386.509,53.333 L 386.509,53.333 Z M 386.509,416.00 L 386.509,394.667 L 406.613,394.667 L 406.613,416.00 L 386.509,416.00 L 386.509,416.00 Z M 272.00,208.00 L 272.00,112.00 L 368.00,112.00 L 368.00,208.00 L 272.00,208.00 L 272.00,208.00 Z M 272.00,336.00 L 272.00,240.00 L 368.00,240.00 L 368.00,336.00 L 272.00,336.00 L 272.00,336.00 Z M 346.347,416.00 L 346.347,394.667 L 366.451,394.667 L 366.451,416.00 L 346.347,416.00 L 346.347,416.00 Z M 306.185,416.00 L 306.185,394.667 L 326.293,394.667 L 326.293,416.00 L 306.185,416.00 L 306.185,416.00 Z M 266.027,416.00 L 266.027,394.667 L 286.135,394.667 L 286.135,416.00 L 266.027,416.00 L 266.027,416.00 Z M 225.869,53.333 L 225.869,32.00 L 245.973,32.00 L 245.973,53.333 L 225.869,53.333 L 225.869,53.333 Z M 225.869,416.00 L 225.869,394.667 L 245.973,394.667 L 245.973,416.00 L 225.869,416.00 L 225.869,416.00 Z M 185.707,416.00 L 185.707,394.667 L 205.815,394.667 L 205.815,416.00 L 185.707,416.00 L 185.707,416.00 Z M 145.545,416.00 L 145.545,394.667 L 165.653,394.667 L 165.653,416.00 L 145.545,416.00 L 145.545,416.00 Z M 240.00,240.00 L 240.00,336.00 L 144.00,336.00 L 144.00,240.00 L 240.00,240.00 L 240.00,240.00 Z M 105.387,53.333 L 105.387,32.00 L 125.495,32.00 L 125.495,53.333 L 105.387,53.333 L 105.387,53.333 Z M 105.387,416.00 L 105.387,394.667 L 125.495,394.667 L 125.495,416.00 L 105.387,416.00 L 105.387,416.00 Z M 64.00,53.333 L 64.00,32.00 L 85.333,32.00 L 85.333,53.333 L 64.00,53.333 L 64.00,53.333 Z M 64.00,93.495 L 64.00,73.387 L 85.333,73.387 L 85.333,93.495 L 64.00,93.495 L 64.00,93.495 Z M 64.00,133.653 L 64.00,113.545 L 85.333,113.545 L 85.333,133.653 L 64.00,133.653 L 64.00,133.653 Z M 64.00,173.815 L 64.00,153.707 L 85.333,153.707 L 85.333,173.815 L 64.00,173.815 L 64.00,173.815 Z M 64.00,213.973 L 64.00,193.869 L 85.333,193.869 L 85.333,213.973 L 64.00,213.973 L 64.00,213.973 Z M 64.00,254.135 L 64.00,234.027 L 85.333,234.027 L 85.333,254.135 L 64.00,254.135 L 64.00,254.135 Z M 64.00,294.293 L 64.00,274.185 L 85.333,274.185 L 85.333,294.293 L 64.00,294.293 L 64.00,294.293 Z M 64.00,334.451 L 64.00,314.347 L 85.333,314.347 L 85.333,334.451 L 64.00,334.451 L 64.00,334.451 Z M 64.00,374.613 L 64.00,354.509 L 85.333,354.509 L 85.333,374.613 L 64.00,374.613 L 64.00,374.613 Z M 64.00,416.00 L 64.00,394.667 L 85.333,394.667 L 85.333,416.00 L 64.00,416.00 L 64.00,416.00 Z M 240.00,112.00 L 240.00,208.00 L 144.00,208.00 L 144.00,112.00 L 240.00,112.00 L 240.00,112.00 Z M 165.653,32.00 L 165.653,53.333 L 145.545,53.333 L 145.545,32.00 L 165.653,32.00 L 165.653,32.00 Z M 205.815,32.00 L 205.815,53.333 L 185.707,53.333 L 185.707,32.00 L 205.815,32.00 L 205.815,32.00 Z M 286.135,32.00 L 286.135,53.333 L 266.027,53.333 L 266.027,32.00 L 286.135,32.00 L 286.135,32.00 Z M 326.293,32.00 L 326.293,53.333 L 306.185,53.333 L 306.185,32.00 L 326.293,32.00 L 326.293,32.00 Z M 366.451,32.00 L 366.451,53.333 L 346.347,53.333 L 346.347,32.00 L 366.451,32.00 L 366.451,32.00 Z"  />
<glyph unicode="&#xe055;" d="M 388.215,284.851 311.625,389.278 235.038,284.851 283.307,284.851 283.307,170.773 C 267.149,185.067 250.24,194.24 237.547,201.067 L 229.333,205.333 229.227,205.171 252.109,247.125 123.733,229.867 178.773,112.695 201.869,155.038 202.078,155.307 212.373,149.602 C 233.971,136.853 272.32,110.985 283.20,82.722 L 283.20,58.88 283.307,58.667 340.476,58.667 340.476,116.907 340.442,284.851 388.215,284.851 z"  />
<glyph unicode="&#xe056;" d="M 185.971,276.053 L 185.971,276.241 L 242.295,276.241 C 336.533,276.241 370.773,255.983 370.773,201.545 C 370.773,147.093 336.533,126.827 242.295,126.827 L 115.575,126.827 L 115.575,73.651 L 242.295,73.651 C 352.909,73.651 423.945,106.078 423.945,201.545 C 423.945,297.007 352.909,329.438 242.295,329.438 L 185.971,329.438 L 185.971,329.60 L 185.971,374.345 L 88.055,302.609 L 185.971,230.827 L 185.971,276.053 L 185.971,276.053 Z"  />
<glyph unicode="&#xe057;" d="M 64.00,368.00 64.00,313.975 209.387,241.011 C 218.88,257.122 236.211,267.947 256.107,267.947 276.002,267.947 293.333,257.122 302.827,241.011 L 448.055,313.975 448.055,368.00 64.00,368.00 z M 256.051,176.051 C 273.707,176.051 288.533,188.425 292.373,204.907 293.013,207.629 293.389,210.453 293.389,213.385 293.389,233.92 276.638,250.667 256.051,250.667 235.413,250.667 218.667,233.92 218.667,213.385 218.667,210.453 219.038,207.629 219.678,204.907 223.518,188.425 238.345,176.051 256.051,176.051 M 310.455,213.069 C 310.455,182.72 286.135,158.135 256.107,158.135 226.078,158.135 201.758,182.72 201.758,213.069 201.758,213.282 201.758,213.547 201.758,213.815 L 64.00,282.987 64.00,80.00 448.055,80.00 448.055,282.987 310.455,213.815 C 310.455,213.547 310.455,213.282 310.455,213.069"  />
<glyph unicode="&#xe060;" d="M 434.133,99.52 434.133,169.545 412.898,169.545 412.898,99.52 343.945,99.52 343.945,78.285 412.898,78.285 412.898,9.229 434.133,9.229 434.133,78.285 503.518,78.285 503.518,99.52 434.133,99.52 zM 386.667,248.909 C 399.066,248.909 410.752,252.032 420.971,257.515 C 443.093,251.712 460.373,237.965 468.322,208.388 L 370.402,208.388 C 356.053,221.082 338.961,230.703 319.147,237.18 C 327.945,247.817 339.311,254.076 352.384,257.51 C 362.603,252.032 374.289,248.909 386.667,248.909 Z M 157.602,237.193 C 137.813,230.716 120.691,221.094 106.347,208.388 L 8.482,208.388 C 16.427,237.956 33.707,251.708 55.787,257.51 C 66.027,252.032 77.705,248.909 90.082,248.909 C 102.507,248.909 114.185,252.032 124.373,257.515 C 137.493,254.084 148.855,247.825 157.602,237.193 Z M 302.135,213.636 C 343.245,202.846 375.424,177.28 390.178,122.295 L 86.562,122.295 C 101.333,177.28 133.495,202.837 174.558,213.632 C 193.60,203.435 215.305,197.628 238.345,197.628 C 261.385,197.628 283.149,203.435 302.135,213.636 Z M 443.52,321.707 C 443.52,290.33 418.078,264.879 386.667,264.879 C 371.861,264.879 358.421,270.588 348.309,279.876 C 350.78,284.966 352.892,290.261 354.65,295.714 C 363.473,284.053 375.761,276.715 389.444,276.715 C 406.396,276.715 421.286,287.842 429.973,304.695 L 357.146,304.695 C 359.322,313.813 360.516,323.307 360.516,333.069 C 360.516,345.549 358.618,357.653 355.115,369.011 C 364.139,375.04 374.993,378.56 386.667,378.56 C 418.078,378.56 443.52,353.118 443.52,321.707 Z M 90.082,264.879 C 58.718,264.879 33.28,290.33 33.28,321.707 C 33.28,353.118 58.718,378.56 90.082,378.56 C 101.76,378.56 112.585,375.04 121.60,369.011 C 118.08,357.653 116.211,345.60 116.211,333.069 C 116.211,323.307 117.389,313.813 119.573,304.695 L 52.322,304.695 C 61.013,287.842 75.895,276.715 92.851,276.715 C 104.585,276.715 115.251,282.129 123.682,290.991 C 125.069,287.177 126.669,283.456 128.427,279.829 C 118.293,270.575 104.853,264.879 90.082,264.879 Z M 318.878,301.359 L 168.107,301.359 C 184.269,270.033 212.002,249.344 243.52,249.344 C 275.042,249.344 302.72,270.033 318.878,301.359 Z M 238.345,227.337 C 179.947,227.337 132.642,274.662 132.642,333.069 C 132.642,391.467 179.947,438.771 238.345,438.771 C 296.747,438.771 344.068,391.467 344.068,333.069 C 344.068,274.662 296.747,227.337 238.345,227.337 Z"  />
<glyph unicode="&#xe061;" d="M 395.093,99.52 395.093,169.545 373.858,169.545 373.858,99.52 304.909,99.52 304.909,78.285 373.858,78.285 373.858,9.229 395.093,9.229 395.093,78.285 464.482,78.285 464.482,99.52 395.093,99.52 zM 204.48,249.335 C 172.966,249.335 145.229,270.02 129.067,301.35 L 279.842,301.35 C 263.68,270.02 236.006,249.335 204.48,249.335 M 199.313,438.771 C 140.907,438.771 93.602,391.467 93.602,333.069 93.602,274.65 140.907,227.328 199.313,227.328 257.732,227.328 305.067,274.65 305.067,333.069 305.067,391.467 257.732,438.771 199.313,438.771M 263.147,213.602 C 244.139,203.396 222.409,197.589 199.36,197.589 176.32,197.589 154.611,203.396 135.573,213.594 94.507,202.807 62.345,177.225 47.573,122.24 L 351.202,122.24 C 336.427,177.237 304.256,202.816 263.147,213.602"  />
<glyph unicode="&#xe062;" d="M 373.013,188.80 C 407.253,179.819 434.078,158.519 446.345,112.695 L 321.417,112.695 C 307.042,137.455 285.76,154.167 257.067,163.26 C 264.747,169.186 271.518,176.132 277.333,183.872 C 290.453,178.487 304.802,175.475 319.868,175.475 C 339.076,175.475 357.18,180.309 373.013,188.80 Z M 297.28,261.867 C 292.80,294.135 273.869,321.707 247.147,337.975 C 263.04,361.118 289.655,376.371 319.868,376.371 C 368.525,376.371 407.94,336.96 407.94,288.32 C 407.94,239.646 368.525,200.23 319.868,200.23 C 309.333,200.23 299.255,202.176 289.869,205.577 C 292.587,211.925 294.669,218.59 296.107,225.498 C 304.747,221.026 314.24,218.56 324.16,218.56 C 350.421,218.56 373.504,235.797 386.948,261.867 L 297.28,261.867 L 297.28,261.867 Z M 245.227,147.716 C 279.467,138.735 306.24,117.44 318.507,71.629 L 65.60,71.629 C 77.918,117.44 104.691,138.726 138.935,147.716 C 154.773,139.217 172.851,134.40 192.051,134.40 C 211.255,134.40 229.385,139.226 245.227,147.716 Z M 259.149,220.80 L 133.547,220.80 C 146.987,194.705 170.078,177.468 196.373,177.468 C 222.613,177.468 245.705,194.705 259.149,220.80 Z M 192.051,159.142 C 143.411,159.142 104.00,198.558 104.00,247.202 C 104.00,295.842 143.411,335.253 192.051,335.253 C 240.695,335.253 280.107,295.842 280.107,247.202 C 280.107,198.558 240.695,159.142 192.051,159.142 Z"  />
<glyph unicode="&#xe063;" d="M 358.72,177.92 89.229,177.92 89.229,210.453 358.72,210.453 358.72,177.92 z M 89.229,267.042 273.173,267.042 273.173,234.453 89.229,234.453 89.229,267.042 z M 392.589,343.629 49.933,343.629 49.933,104.32 393.655,104.32 393.655,275.413 462.08,343.68 392.589,343.629 z"  />
<glyph unicode="&#xe064;" d="M 121.173,266.667 70.289,181.495 114.069,181.495 164.834,266.667 121.173,266.667 z M 180.425,266.667 129.685,181.495 173.329,181.495 224.213,266.667 180.425,266.667 z M 441.655,224.00 282.667,384.00 282.667,266.667 242.56,266.667 192.162,181.495 282.667,181.495 282.667,64.00 441.655,224.00 z"  />
<glyph unicode="&#xe065;" d="M 260.962,193.655 C 230.281,193.655 203.307,213.777 187.575,244.267 L 334.293,244.267 C 318.613,213.777 291.644,193.655 260.962,193.655 M 255.936,378.027 C 199.091,378.027 153.067,331.947 153.067,275.149 153.067,218.287 199.091,172.224 255.936,172.224 312.789,172.224 358.827,218.287 358.827,275.149 358.827,331.947 312.789,378.027 255.936,378.027M 144.371,234.185 C 136.213,225.562 125.815,220.292 114.402,220.292 97.899,220.292 83.413,231.121 74.935,247.509 L 140.378,247.509 C 138.257,256.38 137.101,265.63 137.101,275.14 137.101,287.317 138.944,299.093 142.357,310.135 133.585,316.002 123.038,319.411 111.693,319.411 81.122,319.411 56.375,294.669 56.375,264.102 56.375,233.54 81.122,208.772 111.693,208.772 126.089,208.772 139.157,214.315 149.001,223.33 147.285,226.854 145.737,230.473 144.371,234.185M 400.32,319.411 C 388.954,319.411 378.394,315.972 369.613,310.101 373.03,299.042 374.865,287.30 374.865,275.132 374.865,265.60 373.717,256.375 371.588,247.518 L 442.466,247.518 C 434.014,231.091 419.533,220.267 403.029,220.267 389.705,220.267 377.749,227.413 369.165,238.775 367.458,233.442 365.393,228.322 362.987,223.36 372.834,214.345 385.916,208.747 400.32,208.747 430.891,208.747 455.68,233.545 455.68,264.107 455.68,294.652 430.891,319.411 400.32,319.411M 318.029,158.878 C 299.516,148.954 278.379,143.305 255.949,143.305 233.493,143.305 212.373,148.954 193.869,158.878 153.92,148.369 122.56,123.482 108.211,69.973 L 403.678,69.973 C 389.333,123.494 358.025,148.378 318.029,158.878M 177.387,181.815 C 168.845,192.166 157.777,198.251 145.041,201.596 135.091,196.262 123.733,193.22 111.68,193.22 99.627,193.22 88.213,196.25 78.293,201.596 56.802,195.942 39.949,182.566 32.213,153.783 L 127.479,153.783 C 141.457,166.144 158.101,175.509 177.387,181.815M 384.482,153.813 479.735,153.813 C 472.055,182.592 455.202,195.981 433.69,201.626 423.74,196.292 412.373,193.254 400.303,193.254 388.25,193.254 376.883,196.284 366.938,201.626 354.219,198.281 343.147,192.188 334.601,181.833 353.877,175.531 370.50,166.165 384.482,153.813"  />
<glyph unicode="&#xe066;" d="M 261.013,193.655 C 230.353,193.655 203.362,213.786 187.678,244.267 L 334.345,244.267 C 318.669,213.786 291.691,193.655 261.013,193.655 M 256.00,377.975 C 199.202,377.975 153.122,331.947 153.122,275.149 153.122,218.287 199.202,172.245 256.00,172.245 312.832,172.245 358.882,218.287 358.882,275.149 358.882,331.947 312.832,377.975 256.00,377.975M 318.08,158.878 C 299.58,148.966 278.438,143.305 256.00,143.305 233.545,143.305 212.425,148.954 193.92,158.878 153.971,148.378 122.667,123.494 108.318,69.973 L 403.733,69.973 C 389.389,123.503 358.071,148.39 318.08,158.878"  />
<glyph unicode="&#xe067;" d="M 281.869,266.667 240.043,266.667 240.043,384.055 77.653,224.064 240.043,63.945 240.043,181.495 282.163,181.495 C 304.559,181.495 327.539,171.789 341.013,151.253 348.48,139.789 353.118,120.747 353.118,107.307 L 434.347,151.253 C 427.84,184.162 399.629,266.667 281.869,266.667"  />
<glyph unicode="&#xe068;" d="M 186.615,299.255 186.615,384.107 25.869,224.051 186.615,63.893 186.615,148.745 110.562,224.051 186.615,299.255 z M 333.653,266.688 288.00,266.688 288.00,384.107 273.173,368.371 129.335,224.051 288.00,63.893 288.00,181.495 333.76,181.495 C 356.322,181.495 379.149,171.789 392.747,151.202 400.269,139.789 404.907,120.695 404.907,107.255 L 486.135,151.202 C 479.518,184.162 451.307,266.688 333.653,266.688"  />
<glyph unicode="&#xe069;" d="M 107.947,77.867 136.145,210.773 313.813,223.147 313.813,224.909 136.145,237.282 107.947,370.185 404.053,224.00 107.947,77.867 z"  />
<glyph unicode="&#xe06a;" d="M 372.907,155.307 C 355.669,155.307 340.25,147.627 329.771,135.552 L 194.027,208.589 C 195.413,213.495 196.211,218.667 196.211,224.00 196.211,229.385 195.413,234.505 194.027,239.411 L 329.771,312.482 C 340.25,300.425 355.669,292.693 372.907,292.693 404.361,292.693 429.973,318.293 429.973,349.602 429.973,381.069 404.361,406.613 372.907,406.613 341.419,406.613 315.84,381.069 315.84,349.602 315.84,344.269 316.638,339.093 318.029,334.187 L 182.187,261.278 C 171.733,273.28 156.318,280.853 139.145,280.853 107.682,280.853 82.082,255.518 82.082,224.00 82.082,192.529 107.682,167.155 139.145,167.155 156.318,167.155 171.733,174.758 182.242,186.778 L 318.029,113.839 C 316.638,108.928 315.84,103.77 315.84,98.453 315.84,66.987 341.419,41.387 372.907,41.387 404.361,41.387 429.973,66.987 429.973,98.453 429.973,129.754 404.361,155.307 372.907,155.307"  />
<glyph unicode="&#xe070;" d="M 280.589,199.893 L 338.987,242.692 L 280.589,285.491 L 280.589,258.509 L 209.758,258.509 L 209.758,256.802 L 209.707,256.802 L 209.707,157.487 L 241.553,157.487 L 241.553,226.598 L 280.589,226.598 L 280.589,199.893 L 280.589,199.893 Z M 411.733,230.345 C 413.44,228.663 414.345,226.389 414.345,223.996 C 414.345,221.611 413.44,219.362 411.733,217.664 L 275.063,80.96 L 262.293,68.267 C 260.561,66.505 258.266,65.60 255.962,65.60 C 253.692,65.60 251.392,66.505 249.655,68.267 L 100.211,217.664 C 96.747,221.193 96.747,226.846 100.211,230.345 L 249.655,379.733 C 253.141,383.309 258.833,383.253 262.327,379.733 L 411.733,230.345 L 411.733,230.345 Z"  />
<glyph unicode="&#xe071;" d="M 454.40,56.32 56.695,56.32 56.695,390.72 454.40,390.72 454.40,56.32 z M 483.947,422.293 28.07,422.293 28.07,25.707 483.947,25.707 483.947,422.293 z M 89.707,257.173 C 88.802,264.64 77.44,269.333 74.133,274.078 L 74.133,266.56 C 79.147,261.709 89.707,257.387 89.707,257.173 M 387.038,98.347 C 376.96,94.507 375.518,78.771 377.493,72.747 L 436.962,72.747 436.962,131.84 C 423.147,122.56 409.493,106.88 387.038,98.347 M 258.505,228.373 C 277.973,220.638 276.693,119.04 308.267,145.971 324.907,160.162 329.442,178.078 330.611,197.547 331.20,207.68 361.655,232.96 358.669,239.36 356.16,244.638 340.16,231.573 339.362,243.307 338.935,250.347 317.867,265.387 321.758,270.827 327.573,279.147 336.00,255.573 335.893,255.842 341.227,243.149 345.869,245.389 357.44,248.32 384.269,255.091 361.335,263.573 354.402,272.589 345.173,284.587 383.735,270.293 386.24,270.242 401.655,270.135 404.322,233.442 412.587,235.255 417.869,236.425 431.202,249.813 438.025,257.869 L 438.025,354.185 C 432.32,354.027 419.093,353.869 413.389,353.869 406.669,353.92 372.745,350.669 374.345,363.469 374.507,364.693 328.375,350.771 323.469,352.055 317.547,353.60 334.029,361.438 333.973,360.691 334.293,363.733 332.745,365.653 330.078,366.827 L 309.175,366.827 C 289.971,363.20 265.971,353.387 261.602,347.20 266.185,353.707 276.109,330.935 276.211,330.88 278.135,330.078 293.491,356.80 299.575,346.88 307.52,333.973 272.853,327.202 265.971,329.869 261.171,331.785 253.069,320.533 251.149,322.402 245.547,327.893 247.411,346.24 244.693,347.84 236.80,352.482 231.36,327.68 230.293,326.135 228.962,324.215 254.775,315.785 244.80,310.827 242.24,309.547 219.149,311.68 222.775,299.947 228.535,281.335 269.12,320.158 274.935,306.611 279.202,296.64 321.442,309.602 329.442,311.573 321.225,277.76 286.242,285.227 262.40,291.947 239.893,298.347 215.735,275.575 214.669,253.922 212.80,215.518 239.787,235.947 258.505,228.373 M 348.267,157.922 C 357.491,163.255 355.038,185.869 352.371,189.12 347.469,184.589 339.627,153.011 348.267,157.922 M 110.985,311.202 C 115.575,315.149 101.867,326.187 110.669,328.482 112.802,329.067 142.08,311.842 142.242,314.185 142.827,321.173 109.973,340.587 102.933,344.589 79.842,357.653 85.282,336.802 74.133,327.091 L 74.133,291.042 C 75.20,292.693 83.038,294.455 84.80,296.427 92.267,304.64 103.147,304.533 110.985,311.202 M 103.629,95.309 C 90.829,114.453 119.518,131.413 133.44,144.747 141.12,152.107 187.469,195.891 167.305,204.80 155.038,210.185 112.00,248.32 97.545,238.72 93.547,236.053 81.545,233.545 75.20,233.335 L 75.20,197.069 C 80.853,187.789 97.975,182.029 97.869,170.133 97.707,151.202 73.762,99.038 103.629,95.309"  />
<glyph unicode="&#xe072;" d="M 348.48,349.12 C 336.03,370.79 316.241,387.456 290.027,396.245 285.44,397.798 280.802,399.023 275.891,399.91 270.775,400.806 265.225,401.463 259.469,401.801 L 256.00,401.801 252.587,401.801 C 246.775,401.463 241.225,400.806 236.109,399.91 231.202,399.023 226.56,397.798 222.029,396.245 195.891,387.456 176.00,370.79 163.52,349.12 154.987,334.229 149.333,315.674 150.613,292.958 151.202,282.56 153.971,273.225 157.171,264.747 160.533,256.427 164.425,248.853 168.96,241.655 186.347,213.385 209.869,188.267 223.202,155.947 230.029,139.52 236.002,122.402 241.122,104.162 246.135,86.187 250.667,67.038 252.587,46.135 L 256.00,46.135 259.469,46.135 C 261.333,67.038 265.92,86.187 270.878,104.162 276.002,122.402 282.027,139.52 288.802,155.947 302.14,188.267 325.692,213.385 343.036,241.655 347.597,248.853 351.484,256.427 354.816,264.747 358.033,273.225 360.815,282.56 361.37,292.958 362.697,315.674 357.035,334.229 348.48,349.12 M 256.00,259.627 C 233.813,259.627 215.787,276.958 215.787,298.436 215.787,319.881 233.813,337.229 256.00,337.229 278.242,337.229 296.239,319.881 296.239,298.436 296.239,276.958 278.242,259.627 256.00,259.627"  />
<glyph unicode="&#xe073;" d="M 400.482,264.64 401.399,263.356 403.166,263.228 404.907,264.102 405.564,265.822 405.278,265.638 403.354,266.756 401.28,267.132 400.482,264.64 zM 412.322,251.678 L 386.692,253.909 L 385.182,256.653 L 387.008,261.615 L 390.635,265.60 L 394.684,265.348 L 411.52,254.434 L 412.322,251.678 L 412.322,251.678 ZM 154.24,264.802 152.303,257.83 158.583,264.96 159.104,267.179 156.399,268.245 154.24,264.802 zM 158.029,276.053 158.003,275.678 147.226,270.609 160.853,273.301 158.029,276.053 zM 166.187,262.558 167.514,263.62 168.678,266.313 168.486,265.958 169.425,269.124 166.852,269.504 164.898,269.001 163.61,267.627 162.961,265.353 164.676,263.142 166.187,262.558 zM 381.44,311.091 379.503,312.166 370.88,312.70 367.253,315.759 371.639,331.93 350.191,297.22 344.555,293.001 355.004,289.037 381.44,311.091 zM 401.655,214.878 L 405.777,213.026 L 422.997,180.975 L 401.655,214.878 L 401.655,214.878 ZM 427.895,175.305 L 426.987,176.29 L 428.361,177.139 C 432.269,192.038 434.483,207.642 434.385,223.791 C 434.266,235.255 433.02,246.455 430.886,257.28 L 429.926,259.20 L 430.268,260.535 C 424.738,286.029 413.602,309.389 398.438,329.549 L 397.312,329.067 L 390.852,335.68 L 393.229,336.427 C 387.665,343.091 381.487,349.278 375.006,355.093 L 369.549,355.413 L 359.629,351.202 L 333.602,315.84 L 334.827,311.202 L 347.038,301.815 L 347.038,296.96 L 312.64,271.573 L 312.909,268.322 L 315.678,263.68 L 316.638,259.469 L 301.76,253.547 L 300.587,245.922 L 301.709,236.535 L 278.878,191.723 L 277.922,171.853 L 294.933,161.839 L 322.987,161.933 L 335.625,158.315 L 359.735,77.547 C 392.538,101.069 416.943,135.381 427.895,175.305 Z M 252.211,319.945 L 258.615,313.549 L 308.907,357.013 L 320.695,388.587 C 300.211,396.587 278.029,401.011 254.669,400.853 C 251.627,400.802 248.64,400.482 245.602,400.32 L 243.255,399.04 L 238.507,392.269 L 237.602,387.733 L 239.411,384.371 L 252.373,382.72 L 256.107,357.705 L 249.707,342.669 L 248.162,331.627 L 252.211,319.945 L 252.211,319.945 Z M 185.92,324.907 L 184.427,329.493 L 182.775,331.84 L 181.12,332.267 L 175.04,324.642 L 176.162,323.469 L 183.573,323.469 L 185.92,324.907 L 185.92,324.907 Z M 246.08,94.08 L 257.442,131.337 L 248.533,137.941 L 222.989,145.527 L 208.00,165.133 L 189.602,172.13 L 146.295,173.602 L 133.12,195.789 L 129.651,196.194 L 118.878,191.002 L 114.987,195.162 L 114.24,201.242 L 115.575,206.234 L 122.347,215.45 L 130.453,219.934 L 150.562,216.192 L 153.493,207.735 L 159.735,206.255 L 159.629,219.166 L 176.482,243.733 L 213.76,264.482 L 208.32,265.173 L 198.669,272.269 L 223.147,279.202 L 224.051,277.013 L 223.735,274.987 L 222.187,273.011 L 219.52,271.091 L 221.44,268.535 L 227.413,268.211 L 232.269,270.029 L 216.213,308.80 L 213.973,308.48 L 194.402,317.922 L 190.029,313.707 L 178.615,284.535 L 173.12,289.442 L 160.107,295.467 L 152.055,304.64 L 161.545,318.882 L 190.507,341.333 L 194.773,353.438 L 208.162,344.96 L 210.24,340.322 L 196.211,328.909 L 210.185,320.107 L 213.227,321.707 L 214.669,321.655 L 220.587,331.038 L 219.255,332.535 L 227.413,341.491 L 221.12,352.269 L 204.962,366.08 L 213.495,367.629 L 213.069,369.869 L 208.371,370.935 L 194.88,363.307 L 199.202,370.453 L 190.135,367.573 L 188.535,345.335 L 181.333,340.425 L 176.269,345.229 L 189.547,369.975 L 188.425,371.038 L 187.20,371.575 L 185.869,371.575 L 184.32,370.987 L 163.20,341.547 L 163.575,343.309 L 165.76,347.413 L 164.962,349.069 L 161.335,346.935 L 130.987,340.693 L 125.44,343.787 C 95.573,311.573 77.282,268.535 77.653,221.167 C 77.653,220.604 77.76,220.045 77.76,219.447 L 77.815,219.729 L 82.24,218.108 L 98.295,190.814 L 146.667,169.493 L 153.28,162.18 L 153.387,152.486 L 147.362,138.061 L 147.038,130.15 L 168.00,89.60 L 168.64,67.149 C 179.947,60.749 191.949,55.467 204.638,51.627 L 226.56,79.735 L 246.08,94.08 L 246.08,94.08 Z M 81.707,204.89 L 81.869,208.141 L 78.029,214.703 C 78.029,214.106 78.135,213.513 78.135,212.924 L 81.707,204.89 L 81.707,204.89 Z M 131.20,349.069 L 130.56,347.84 L 139.255,342.882 L 152.00,348.80 L 162.027,359.518 L 162.24,369.173 L 153.60,367.467 L 152.747,367.787 C 146.667,363.469 140.907,358.72 135.467,353.655 L 136.427,352.691 L 131.20,349.069 L 131.20,349.069 Z M 165.973,363.575 L 165.973,361.438 L 170.829,360.691 L 174.293,364.80 L 175.253,369.549 L 172.693,370.88 L 165.973,363.575 L 165.973,363.575 Z M 185.067,386.133 C 181.76,384.747 178.615,383.04 175.411,381.44 L 176.162,380.48 L 179.733,380.693 L 183.68,382.40 L 185.869,385.011 L 185.067,386.133 L 185.067,386.133 Z M 192.695,387.84 L 192.371,380.642 L 198.878,375.467 L 207.253,374.345 L 212.373,379.307 L 209.28,379.785 L 196.425,387.093 L 192.695,387.84 L 192.695,387.84 Z M 212.211,391.518 L 204.693,386.402 L 214.558,386.825 L 233.758,399.36 C 227.627,398.613 221.653,397.491 215.735,396.16 L 212.211,391.518 L 212.211,391.518 Z M 320.375,329.438 L 321.92,334.025 L 319.04,335.202 L 312.909,333.815 L 307.042,335.091 L 306.825,327.842 L 307.469,326.242 L 315.362,325.491 L 320.375,329.438 L 320.375,329.438 Z M 321.92,285.867 L 309.867,303.893 L 309.922,287.04 L 313.387,278.455 L 321.442,280.32 L 321.92,285.867 L 321.92,285.867 Z M 256.00,421.76 C 365.227,421.76 453.739,333.227 453.739,224.013 C 453.739,114.773 365.227,26.291 256.00,26.291 C 146.829,26.291 58.24,114.773 58.24,224.013 C 58.24,333.227 146.829,421.76 256.00,421.76 ZM 402.987,237.547 L 402.547,229.862 L 363.759,222.076 L 356.80,224.512 L 342.187,237.764 L 309.867,236.574 L 334.507,254.865 L 346.295,254.938 L 354.167,242.581 L 355.665,243.127 L 356.851,244.002 L 358.464,246.711 L 357.841,251.115 L 349.602,257.148 L 348.587,261.355 L 349.175,260.548 L 352.508,261.363 L 352.538,261.521 L 373.444,239.697 L 374.135,240.299 L 373.602,248.064 L 376.286,244.80 L 402.987,237.547 L 402.987,237.547 Z"  />
<glyph unicode="&#xe080;" d="M 229.973,229.385 L 179.307,196.228 L 179.307,156.851 L 332.638,156.851 L 332.638,178.624 L 302.613,202.436 L 278.17,193.135 L 229.973,229.385 L 229.973,229.385 ZM 159.629,311.36 352.371,311.36 352.371,136.64 159.629,136.64 159.629,311.36 z M 433.173,136.64 377.229,136.64 377.229,336.213 159.629,336.213 159.629,392.158 134.771,392.158 134.771,336.213 78.827,336.213 78.827,311.36 134.771,311.36 134.771,111.787 352.371,111.787 352.371,55.838 377.229,55.838 377.229,111.787 433.173,111.787 433.173,136.64 z"  />
<glyph unicode="&#xe081;" d="M 287.945,222.613 C 287.945,242.078 272.149,257.882 252.638,257.882 233.173,257.882 217.387,242.078 217.387,222.613 217.387,203.127 233.173,187.328 252.638,187.328 272.149,187.328 287.945,203.127 287.945,222.613M 425.28,236.851 C 423.612,259.46 417.707,281.165 407.761,301.389 397.393,322.347 383.117,340.745 365.278,356.105 347.469,371.469 327.147,382.933 304.853,390.08 283.575,397.013 260.745,399.309 238.669,398.025 215.893,396.373 194.185,390.451 173.973,380.373 156.425,371.785 140.425,359.518 126.669,345.493 L 126.455,345.655 94.455,372.851 86.187,260.335 196.053,286.362 164.318,313.335 164.105,313.493 C 173.069,321.975 184.162,330.24 195.307,335.735 209.493,342.72 225.335,347.093 241.122,348.267 257.869,349.175 273.92,347.413 288.802,342.613 304.64,337.493 319.091,329.335 331.84,318.345 344.589,307.362 354.773,294.242 362.133,279.296 369.28,264.909 373.521,249.463 374.707,233.365 374.946,230.17 375.061,227.072 375.061,223.979 375.061,210.935 373.039,198.067 369.067,185.809 363.947,169.971 355.84,155.469 344.853,142.72 333.76,129.971 320.64,119.735 305.758,112.427 291.362,105.335 275.84,101.069 259.575,99.84 256.589,99.627 253.495,99.52 250.347,99.52 237.44,99.52 224.589,101.547 212.267,105.493 196.425,110.669 181.922,118.771 169.173,129.758 156.425,140.80 146.24,153.92 138.88,168.802 L 94.985,146.718 C 105.28,125.76 119.573,107.362 137.387,92.002 155.307,76.587 175.573,65.173 197.815,58.027 214.989,52.48 232.96,49.651 251.093,49.651 L 251.947,49.651 C 256.00,49.651 260.109,49.813 264.162,50.082 286.72,51.789 308.425,57.707 328.695,67.682 349.653,78.08 368.055,92.318 383.437,110.135 398.788,127.945 410.231,148.267 417.374,170.505 422.933,187.797 425.754,205.794 425.754,223.979 425.754,228.284 425.604,232.542 425.28,236.851"  />
<glyph unicode="&#xe082;" d="M 224.051,222.613 C 224.051,203.127 239.855,187.328 259.366,187.328 278.827,187.328 294.669,203.127 294.669,222.613 294.669,242.078 278.827,257.882 259.366,257.882 239.855,257.882 224.051,242.078 224.051,222.613M 342.827,129.758 C 330.052,118.797 315.558,110.635 299.733,105.51 287.36,101.521 274.509,99.503 261.653,99.503 258.505,99.533 255.411,99.627 252.425,99.857 236.109,101.056 220.587,105.31 206.242,112.401 191.305,119.744 178.185,129.967 167.147,142.741 156.16,155.482 148.002,169.971 142.878,185.813 138.935,198.08 136.909,210.935 136.909,224.00 136.909,227.038 137.015,230.187 137.28,233.335 138.453,249.442 142.72,264.909 149.811,279.305 157.171,294.242 167.411,307.362 180.109,318.345 192.853,329.335 207.36,337.493 223.202,342.613 238.08,347.413 254.135,349.175 270.827,348.267 286.613,347.093 302.464,342.771 316.693,335.735 327.799,330.24 338.901,321.975 347.836,313.493 L 347.631,313.335 315.947,286.345 425.758,260.322 417.549,372.851 385.527,345.655 385.318,345.493 C 371.567,359.518 355.537,371.785 337.984,380.373 317.786,390.451 296.081,396.373 273.28,398.025 251.255,399.309 228.425,397.013 207.147,390.08 184.853,382.933 164.48,371.469 146.722,356.105 128.853,340.745 114.56,322.347 104.213,301.389 94.293,281.173 88.371,259.469 86.72,236.851 86.349,232.533 86.242,228.267 86.242,224.00 86.242,205.815 89.015,187.789 94.613,170.513 101.76,148.25 113.173,127.957 128.533,110.144 143.893,92.331 162.347,78.059 183.305,67.682 203.575,57.707 225.28,51.733 247.787,50.082 251.84,49.813 255.949,49.60 260.053,49.60 L 260.851,49.60 C 279.04,49.60 296.973,52.48 314.133,58.027 336.38,65.173 356.693,76.587 374.566,91.968 392.384,107.354 406.669,125.747 417.011,146.718 L 373.116,168.811 C 365.717,153.899 355.567,140.766 342.827,129.758"  />
<glyph unicode="&#xe083;" d="M 175.467,322.295 175.467,127.04 344.533,224.64 175.467,322.295 zM 407.787,72.213 104.269,72.213 104.269,375.735 407.787,375.735 407.787,72.213 z M 80.482,48.482 431.518,48.482 431.518,399.518 80.482,399.518 80.482,48.482 z"  />
<glyph unicode="&#xe090;" d="M 155.789,296.269 356.267,296.269 356.267,151.735 384.427,151.735 384.427,324.437 155.789,324.437 155.789,296.269 zM 268.48,380.80 268.48,352.636 412.587,352.636 412.587,222.187 440.747,222.187 440.747,380.80 268.48,380.80 zM 131.947,159.36 131.947,177.216 131.947,179.127 133.85,179.127 188.16,179.127 188.16,234.295 188.16,236.16 190.08,236.16 207.893,236.16 209.813,236.16 209.813,234.295 209.813,179.127 264.162,179.127 266.078,179.127 266.078,177.216 266.078,159.36 266.078,157.457 264.162,157.457 209.813,157.457 209.813,102.293 209.813,100.425 207.893,100.425 190.08,100.425 188.16,100.425 188.16,102.293 188.16,157.457 133.85,157.457 131.947,157.457 131.947,159.36 z M 71.253,67.251 328.055,67.251 328.055,268.16 71.253,268.16 71.253,67.251 z"  />
<glyph unicode="&#xe091;" d="M 254.507,140.535 167.202,259.575 221.666,259.575 221.666,370.722 286.805,370.722 286.805,259.575 341.815,259.575 254.507,140.535 z M 76.693,109.393 76.693,77.333 435.307,77.333 435.255,109.393 76.693,109.393 z"  />
<glyph unicode="&#xe092;" d="M 85.602,120.802 247.629,214.345 247.629,120.802 426.347,224.00 247.629,327.202 247.629,233.655 85.602,327.202 85.602,120.802 z"  />
<glyph unicode="&#xe093;" d="M 420.48,388.48 L 307.52,371.102 L 337.60,340.979 L 276.80,280.158 L 312.427,244.48 L 373.269,305.335 L 403.063,275.52 L 420.48,388.48 L 420.48,388.48 ZM 91.52,59.52 L 204.48,76.898 L 174.40,107.017 L 235.20,167.838 L 199.573,203.469 L 138.735,142.669 L 108.932,172.48 L 91.52,59.52 L 91.52,59.52 ZM 91.52,388.48 L 108.924,275.52 L 139.012,305.60 L 199.838,244.80 L 235.52,280.427 L 174.669,341.261 L 204.48,371.089 L 91.52,388.48 L 91.52,388.48 ZM 420.48,59.52 L 403.081,172.48 L 372.988,142.40 L 312.158,203.20 L 276.535,167.573 L 337.335,106.739 L 307.52,76.915 L 420.48,59.52 L 420.48,59.52 Z"  />
<glyph unicode="&#xe094;" d="M 185.545,168.533 L 145.088,128.085 L 90.987,63.945 L 95.945,58.987 L 160.055,113.122 L 200.508,153.545 C 240.909,115.708 282.56,96.213 296.107,109.705 L 307.413,121.045 C 318.029,131.635 308.267,159.582 285.333,190.652 L 355.413,260.745 C 378.722,243.149 398.135,234.88 404.535,241.225 L 418.825,255.573 C 428.16,264.853 406.293,301.815 370.027,338.078 C 333.76,374.345 296.853,396.16 287.518,386.88 L 273.225,372.535 C 266.829,366.135 275.149,346.722 292.693,323.413 L 222.609,253.333 C 191.582,276.267 163.622,286.029 153.003,275.413 L 141.713,264.107 C 128.213,250.611 147.691,208.939 185.545,168.533 Z"  />
<glyph unicode="&#xe095;" d="M 402.722,326.72 402.722,233.545 241.335,326.72 241.335,233.545 79.949,326.72 79.949,121.335 241.335,214.558 241.335,121.335 402.722,214.558 402.722,121.335 432.055,121.335 432.055,326.72 402.722,326.72 z"  />
<glyph unicode="&#xe096;" d="M 109.278,77.278 226.667,77.278 226.667,370.722 109.278,370.722 109.278,77.278 zM 285.333,77.278 402.722,77.278 402.722,370.722 285.333,370.722 285.333,77.278 z"  />
<glyph unicode="&#xe097;" d="M 256.00,47.147 C 158.507,47.147 79.147,126.507 79.147,224.00 79.147,321.549 158.507,400.909 256.00,400.909 353.549,400.909 432.853,321.549 432.853,224.00 432.853,126.507 353.549,47.147 256.00,47.147 M 256.00,421.76 C 146.987,421.76 58.291,333.069 58.291,224.00 58.291,114.987 146.987,26.30 256.00,26.30 365.013,26.30 453.705,114.987 453.705,224.00 453.705,333.069 365.013,421.76 256.00,421.76M 173.495,141.495 239.518,141.495 239.518,306.509 173.495,306.509 173.495,141.495 zM 272.482,141.495 338.509,141.495 338.509,306.509 272.482,306.509 272.482,141.495 z"  />
<glyph unicode="&#xe098;" d="M 103.518,400.055 103.518,47.949 408.427,224.00 103.518,400.055 z"  />
<glyph unicode="&#xe099;" d="M 193.225,317.815 193.225,127.629 357.922,222.72 193.225,317.815 zM 256.00,47.095 C 158.507,47.095 79.147,126.455 79.147,224.00 79.147,321.493 158.507,400.853 256.00,400.853 353.549,400.853 432.853,321.493 432.853,224.00 432.853,126.455 353.549,47.095 256.00,47.095 M 256.00,421.705 C 146.987,421.705 58.291,333.013 58.291,224.00 58.291,114.935 146.987,26.249 256.00,26.249 365.013,26.249 453.705,114.935 453.705,224.00 453.705,333.013 365.013,421.705 256.00,421.705"  />
<glyph unicode="&#xe09a;" d="M 432.055,326.72 270.669,233.545 270.669,326.72 109.278,233.545 109.278,326.72 79.949,326.72 79.949,121.335 109.278,121.335 109.278,214.558 270.669,121.335 270.669,214.558 432.055,121.335 432.055,326.72 z"  />
<glyph unicode="&#xe09b;" d="M 411.678,231.253 C 412.023,228.54 412.25,225.792 412.25,222.963 412.25,184.034 380.561,152.32 341.602,152.32 L 150.878,152.32 150.878,216.162 51.362,135.735 150.878,55.36 150.878,114.935 341.602,114.935 C 401.19,114.935 449.643,163.413 449.643,222.963 449.643,234.999 447.612,246.861 443.622,258.30 L 411.678,231.253 zM 100.267,216.747 C 99.925,219.456 99.725,222.225 99.725,225.037 99.725,263.97 131.418,295.68 170.347,295.68 L 361.118,295.68 361.118,231.855 460.587,312.269 361.118,392.64 361.118,333.069 170.347,333.069 C 110.788,333.069 62.323,284.587 62.323,225.037 62.323,213.018 64.337,201.156 68.348,189.70 L 100.267,216.747 z"  />
<glyph unicode="&#xe09c;" d="M 418.935,251.678 C 410.944,272.606 398.451,291.836 383.633,308.211 368.047,324.907 349.815,338.133 329.387,347.575 311.735,355.785 292.322,360.589 272.853,362.56 L 272.853,433.118 131.84,338.56 272.853,244.297 272.853,313.011 C 284.587,311.253 297.225,307.947 307.891,302.976 322.291,296.303 335.573,286.694 346.402,275.119 357.547,262.639 366.268,249.024 371.861,234.441 377.801,218.901 380.527,202.505 379.93,185.655 379.349,168.909 375.514,152.695 368.486,137.60 361.707,123.038 352.371,110.029 340.535,99.038 338.185,96.853 335.893,94.771 333.491,92.851 323.307,84.693 312.00,78.187 300.002,73.60 284.425,67.682 268.053,64.909 251.20,65.493 234.347,66.133 218.133,69.918 203.093,76.962 188.535,83.733 175.518,93.171 164.373,105.067 162.295,107.255 160.32,109.602 158.293,112.055 150.242,122.078 143.735,133.389 139.093,145.493 133.171,161.067 130.453,177.442 130.987,194.295 131.575,211.11 135.467,227.247 142.455,242.355 L 97.707,262.711 C 87.893,241.515 82.509,218.859 81.651,195.362 80.853,171.789 84.693,148.80 93.069,126.985 99.469,110.08 108.535,94.349 119.945,80.162 L 120.427,79.518 C 122.987,76.373 125.705,73.28 128.482,70.293 143.893,53.76 162.133,40.585 182.613,31.04 203.84,21.227 226.505,15.787 250.027,14.989 273.493,14.187 296.482,18.027 318.345,26.402 335.253,32.853 351.04,41.971 365.227,53.389 368.593,56.055 371.819,58.829 374.976,61.815 391.548,77.278 404.757,95.467 414.289,115.895 424.111,137.122 429.504,159.787 430.31,183.305 431.13,206.805 427.294,229.82 418.935,251.678"  />
<glyph unicode="&#xe09d;" d="M 276.425,244.535 L 389.44,261.931 L 359.309,292.036 L 420.105,352.853 L 384.482,388.535 L 323.648,327.68 L 293.837,357.547 L 276.425,244.535 L 276.425,244.535 ZM 235.575,203.469 L 122.56,186.078 L 152.695,155.955 L 91.84,95.091 L 127.518,59.469 L 188.352,120.32 L 218.167,90.505 L 235.575,203.469 L 235.575,203.469 ZM 235.575,244.80 L 218.176,357.815 L 188.066,327.68 L 127.202,388.535 L 91.575,352.909 L 152.371,292.049 L 122.56,262.217 L 235.575,244.80 L 235.575,244.80 ZM 276.425,203.20 L 293.837,90.185 L 323.934,120.32 L 384.802,59.469 L 420.425,95.147 L 359.629,155.972 L 389.44,185.783 L 276.425,203.20 L 276.425,203.20 Z"  />
<glyph unicode="&#xe09e;" d="M 426.402,327.202 264.371,233.655 264.371,327.202 85.653,224.00 264.371,120.802 264.371,214.345 426.402,120.802 426.402,327.202 z"  />
<glyph unicode="&#xe09f;" d="M 60.80,302.455 C 85.867,302.396 109.675,296.70 133.547,285.069 154.505,274.773 175.305,259.793 195.469,240.533 197.333,242.56 199.202,244.587 201.011,246.669 209.011,255.825 217.493,264.747 226.295,273.28 206.08,291.063 185.60,304.956 163.733,315.686 131.947,331.409 96.789,339.703 61.764,339.703 58.385,339.703 55.066,339.567 51.814,339.413 L 45.282,339.11 45.282,301.764 52.501,302.204 C 55.266,302.34 58.018,302.455 60.80,302.455M 347.678,280.107 C 354.214,283.298 360.717,285.999 367.219,288.303 L 367.219,231.876 466.722,312.277 367.219,392.691 367.219,328.678 C 350.127,324.642 333.393,318.639 317.50,310.767 282.185,293.363 249.813,267.469 218.402,231.569 191.091,200.269 162.56,177.173 133.547,162.935 109.653,151.253 85.867,145.545 60.80,145.493 58.027,145.493 55.253,145.655 52.48,145.813 L 45.282,146.24 45.282,108.855 51.789,108.535 C 55.04,108.425 58.402,108.267 61.76,108.267 L 62.135,108.267 C 96.747,108.267 131.84,116.535 163.733,132.267 198.989,149.653 231.411,175.573 262.775,211.469 290.027,242.778 318.609,265.877 347.678,280.107M 367.253,159.68 C 360.742,161.988 354.24,164.689 347.703,167.885 328.567,177.284 309.389,190.694 290.722,207.808 287.202,204.122 283.678,200.32 280.213,196.309 273.869,189.094 267.255,181.948 260.322,175.053 278.827,159.445 297.60,147.046 317.53,137.229 333.436,129.382 350.17,123.383 367.253,119.343 L 367.253,55.36 466.722,135.74 367.253,216.162 367.253,159.68 z"  />
<glyph unicode="&#xe0a0;" d="M 402.722,77.278 L 402.722,370.722 L 109.278,370.722 L 109.278,77.278 L 402.722,77.278 L 402.722,77.278 Z"  />
<glyph unicode="&#xe0a1;" d="M 254.507,370.722 341.815,251.678 287.339,251.678 287.339,140.535 222.208,140.535 222.208,251.678 167.202,251.678 254.507,370.722 z M 76.693,109.389 76.693,77.278 435.307,77.278 435.255,109.389 76.693,109.389 z"  />
<glyph unicode="&#xe0b0;" d="M 148.907,295.36 C 129.212,295.36 113.237,311.334 113.237,331.051 113.237,350.771 129.212,366.72 148.907,366.72 168.631,366.72 184.602,350.771 184.602,331.051 184.602,311.334 168.631,295.36 148.907,295.36 M 295.467,237.973 C 304.375,255.185 309.491,274.667 309.491,295.36 309.491,364.322 253.602,420.267 184.602,420.267 115.644,420.267 59.678,364.322 59.678,295.36 59.678,226.347 115.644,170.453 184.602,170.453 205.282,170.453 224.802,175.573 241.92,184.482 L 309.491,116.907 345.229,116.907 345.229,81.229 380.907,81.229 380.907,45.547 398.771,27.678 452.267,27.678 452.267,81.229 295.467,237.973 z"  />
<glyph unicode="&#xe0b1;" d="M 318.40,318.345 334.14,323.985 C 321.429,355.674 296.806,381.227 265.766,395.20 L 260.053,379.358 C 286.455,367.151 307.418,345.34 318.40,318.345M 163.575,379.358 157.905,395.191 C 126.298,380.979 101.389,354.705 88.909,322.185 L 104.64,316.587 C 115.413,344.358 136.653,366.891 163.575,379.358M 353.229,145.92 353.229,216.853 331.021,216.853 331.021,145.92 261.12,145.92 261.12,123.725 331.021,123.725 331.021,52.80 353.229,52.80 353.229,123.725 423.091,123.725 423.091,145.92 353.229,145.92 zM 211.84,192.427 C 166.234,192.427 129.28,229.402 129.28,275.042 129.28,320.64 166.234,357.602 211.84,357.602 257.463,357.602 294.455,320.64 294.455,275.042 294.455,229.402 257.463,192.427 211.84,192.427 M 211.84,373.389 C 157.495,373.389 113.493,329.335 113.493,275.042 113.493,220.689 157.495,176.653 211.84,176.653 266.185,176.653 310.242,220.689 310.242,275.042 310.242,329.335 266.185,373.389 211.84,373.389M 213.495,341.653 203.051,341.653 199.45,274.453 200.384,267.413 250.662,222.669 258.603,230.827 217.028,275.362 213.495,341.653 z"  />
<glyph unicode="&#xe0b2;" d="M 256.482,84.48 C 188.425,84.48 133.278,139.678 133.278,207.735 133.278,275.789 188.425,330.987 256.482,330.987 324.535,330.987 379.733,275.789 379.733,207.735 379.733,139.678 324.535,84.48 256.482,84.48 M 256.482,354.509 C 175.411,354.509 109.705,288.802 109.705,207.735 109.705,126.643 175.411,60.937 256.482,60.937 337.545,60.937 403.255,126.643 403.255,207.735 403.255,288.802 337.545,354.509 256.482,354.509M 258.935,307.149 243.345,307.149 237.973,206.878 239.377,196.373 314.402,129.60 326.242,141.76 264.201,208.269 258.935,307.149 zM 336.909,387.093 328.452,363.46 C 367.787,345.229 399.091,312.691 415.467,272.375 L 438.989,280.802 C 420.002,328.107 383.236,366.263 336.909,387.093M 184.482,363.469 176.021,387.098 C 128.853,365.888 91.682,326.69 73.015,278.187 L 96.482,269.76 C 112.585,311.262 144.294,344.866 184.482,363.469"  />
<glyph unicode="&#xe0b3;" d="M 186.667,256.00 186.667,325.333 234.667,325.333 234.667,357.333 277.333,357.333 277.333,325.333 325.333,325.333 325.333,256.00 186.667,256.00 z M 298.667,346.667 298.667,378.667 213.333,378.667 213.333,346.667 165.333,346.667 165.333,69.333 346.667,69.333 346.667,346.667 298.667,346.667 z"  />
<glyph unicode="&#xe0b4;" d="M 251.038,115.52 C 310.933,115.52 359.518,164.079 359.518,224.00 C 359.518,280.213 316.80,326.40 262.101,331.947 C 260.403,332.105 258.654,332.105 256.934,332.215 C 254.963,332.322 253.03,332.535 251.038,332.535 L 251.029,332.535 C 191.253,332.535 142.771,284.053 142.771,224.269 C 142.771,164.489 191.253,116.032 251.029,116.032 L 251.038,116.032 L 251.038,115.52 L 251.038,115.52 Z M 388.373,224.00 L 430.242,184.213 L 375.253,166.571 L 395.733,112.572 L 338.509,120.512 L 333.547,62.976 L 285.466,94.95 L 256.00,45.282 L 226.539,94.95 L 178.453,62.976 L 173.44,120.512 L 116.267,112.572 L 136.747,166.571 L 81.762,184.213 L 123.627,224.00 L 81.762,263.787 L 136.747,281.442 L 116.267,335.467 L 173.44,327.467 L 178.453,385.011 L 226.539,353.067 L 256.00,402.722 L 285.466,353.067 L 333.547,385.011 L 338.509,327.467 L 395.733,335.467 L 375.253,281.442 L 430.242,263.787 L 388.373,224.00 L 388.373,224.00 Z"  />
<glyph unicode="&#xe0b5;" d="M 321.758,150.135 272.508,100.425 272.508,203.469 321.758,150.135 z M 272.508,347.575 321.758,297.869 272.508,256.853 272.508,347.575 z M 358.694,297.869 241.335,412.80 241.335,244.851 170.078,310.989 153.335,292.958 227.575,224.00 153.335,155.051 170.078,137.007 241.335,203.136 241.335,35.251 358.694,150.135 284.817,232.213 358.694,297.869 z"  />
<glyph unicode="&#xe0b6;" d="M 340.745,224.00 413.815,158.293 413.815,289.655 340.745,224.00 zM 320.853,150.135 271.603,100.425 271.603,203.469 320.853,150.135 z M 271.603,347.575 320.853,297.869 271.603,256.853 271.603,347.575 z M 357.794,297.869 240.427,412.80 240.427,244.851 169.173,310.989 152.427,292.958 226.667,224.00 152.427,155.051 169.173,137.007 240.427,203.136 240.427,35.251 357.794,150.135 283.917,232.213 357.794,297.869 zM 98.185,289.655 98.185,158.293 171.255,223.949 98.185,289.655 z"  />
<glyph unicode="&#xe0b7;" d="M 342.669,285.815 C 350.549,266.044 356.689,244.604 356.689,223.147 356.689,201.707 350.549,180.002 342.669,160.213 L 363.055,153.122 C 372.548,176.482 378.833,199.091 378.833,224.213 378.833,248.828 373.342,273.045 364.015,296.252 L 342.669,285.815 z M 401.92,351.735 381.803,339.947 C 397.602,303.586 405.973,263.411 405.973,223.411 405.973,183.411 397.602,143.253 381.803,106.88 L 401.92,95.091 C 419.038,135.202 428.053,179.52 428.053,223.411 428.053,267.401 419.038,311.633 401.92,351.735 M 201.442,256.311 201.442,345.707 249.92,296.734 201.442,256.311 z M 249.92,151.202 201.442,102.242 201.442,203.733 249.92,151.202 z M 170.667,409.92 170.667,244.518 100.535,309.675 84.002,291.883 157.171,223.949 84.002,156.053 100.535,138.295 170.667,203.413 170.667,38.029 286.293,151.202 213.547,232.051 286.293,296.734 170.667,409.92 z"  />
<glyph unicode="&#xe0b8;" d="M 294.989,151.735 283.708,185.131 228.16,185.131 216.909,151.735 184.64,151.735 240.371,306.56 271.859,306.56 327.381,151.735 294.989,151.735 z M 388.373,224.00 430.242,263.735 375.309,281.442 395.733,335.411 338.539,327.467 333.547,385.011 285.478,353.067 256.004,402.722 226.56,353.067 178.453,385.011 173.495,327.467 116.267,335.411 136.747,281.442 81.762,263.735 123.627,224.00 81.762,184.209 136.747,166.549 116.267,112.555 173.495,120.499 178.453,62.985 226.56,94.933 256.004,45.282 285.478,94.933 333.547,62.985 338.539,120.499 395.733,112.555 375.309,166.549 430.242,184.209 388.373,224.00 z M 255.612,266.402 236.373,209.442 275.52,209.442 256.277,266.402 255.612,266.402 z"  />
<glyph unicode="&#xe0b9;" d="M 256.00,311.893 C 304.461,311.893 343.893,272.474 343.893,224.00 C 343.893,175.573 304.461,136.162 256.00,136.162 C 207.539,136.162 168.107,175.573 168.107,224.00 C 168.107,272.474 207.539,311.893 256.00,311.893 Z M 256.00,115.52 C 315.947,115.52 364.48,164.109 364.48,224.00 C 364.48,283.942 315.947,332.514 256.00,332.514 C 196.109,332.514 147.52,283.942 147.52,224.00 C 147.52,164.109 196.109,115.52 256.00,115.52 Z M 388.373,224.00 L 430.242,184.213 L 375.253,166.558 L 395.733,112.589 L 338.56,120.533 L 333.547,62.985 L 285.478,94.933 L 256.017,45.282 L 226.56,94.933 L 178.453,62.985 L 173.44,120.533 L 116.267,112.589 L 136.747,166.558 L 81.762,184.213 L 123.627,224.00 L 81.762,263.787 L 136.747,281.463 L 116.267,335.458 L 173.44,327.505 L 178.453,385.011 L 226.56,353.071 L 256.017,402.722 L 285.478,353.071 L 333.547,385.011 L 338.56,327.505 L 395.733,335.458 L 375.253,281.463 L 430.242,263.787 L 388.373,224.00 L 388.373,224.00 Z"  />
<glyph unicode="&#xe0ba;" d="M 251.038,115.52 C 310.989,115.52 359.518,164.079 359.518,224.00 C 359.518,283.947 310.989,332.535 251.038,332.535 L 251.038,115.52 L 251.038,115.52 Z M 388.373,224.00 L 430.242,184.213 L 375.253,166.566 L 395.733,112.572 L 338.509,120.512 L 333.547,62.976 L 285.466,94.942 L 256.013,45.282 L 226.556,94.942 L 178.453,62.976 L 173.44,120.512 L 116.267,112.572 L 136.747,166.566 L 81.762,184.213 L 123.627,224.00 L 81.762,263.787 L 136.747,281.442 L 116.267,335.467 L 173.44,327.518 L 178.453,385.011 L 226.556,353.067 L 256.013,402.722 L 285.466,353.067 L 333.547,385.011 L 338.509,327.518 L 395.733,335.467 L 375.253,281.442 L 430.242,263.787 L 388.373,224.00 L 388.373,224.00 Z"  />
<glyph unicode="&#xe0bb;" d="M 434.24,109.922 C 438.217,115.153 437.892,122.594 433.105,127.394 432.559,127.936 431.919,128.422 431.296,128.849 L 431.275,128.956 353.549,184.533 353.438,184.427 C 348.267,188.267 340.958,187.891 336.213,183.147 335.787,182.72 335.36,182.187 334.989,181.653 L 334.989,181.602 C 334.72,181.333 334.507,181.013 334.345,180.693 329.122,173.227 329.173,172.267 324.958,165.76 318.933,156.386 312.055,141.905 305.225,125.44 283.362,128.811 250.88,147.759 215.305,183.305 179.733,218.88 160.802,251.362 157.44,273.173 173.922,280.00 188.373,286.933 197.815,292.907 204.267,297.122 205.171,297.067 212.693,302.293 213.013,302.507 213.333,302.72 213.653,302.933 213.653,302.933 213.705,302.933 213.705,302.989 214.187,303.36 214.72,303.735 215.202,304.213 219.891,308.907 220.267,316.215 216.482,321.438 L 216.482,321.549 160.96,399.253 160.853,399.253 C 160.371,399.893 159.893,400.482 159.36,401.067 154.611,405.815 147.093,406.187 141.922,402.185 104.691,376.64 71.04,348.642 75.413,315.469 80.158,279.893 122.56,201.493 178.027,146.044 233.493,90.594 311.945,48.158 347.52,43.469 380.693,39.04 408.708,72.687 434.24,109.922"  />
<glyph unicode="&#xe0bc;" d="M 321.92,207.629 C 321.92,171.149 292.356,141.547 255.893,141.547 219.413,141.547 189.815,171.149 189.815,207.629 189.815,244.079 219.413,273.655 255.893,273.655 292.356,273.655 321.92,244.079 321.92,207.629M 255.893,111.147 C 202.577,111.147 159.36,154.359 159.36,207.629 159.36,260.907 202.577,304.158 255.893,304.158 309.175,304.158 352.371,260.907 352.371,207.629 352.371,154.359 309.175,111.147 255.893,111.147 M 435.255,333.602 313.387,333.602 313.387,347.307 313.387,363.575 199.735,363.575 199.735,347.307 199.735,333.602 C 199.735,333.602 187.52,333.815 177.173,333.602 166.827,333.44 155.093,329.549 155.093,329.549 L 76.693,304.213 C 76.693,304.213 76.851,293.227 76.693,285.333 76.48,277.491 76.693,100.834 76.693,100.834 L 76.693,84.403 C 76.693,84.403 434.825,84.437 435.255,84.403 435.733,84.369 435.255,91.759 435.255,100.834 L 435.255,317.175 435.255,333.602 zM 148.907,341.973 L 148.907,348.847 L 148.907,353.911 L 91.52,353.911 L 91.52,348.847 L 91.52,322.534 L 148.907,341.973 L 148.907,341.973 Z"  />
<glyph unicode="&#xe0bd;" d="M 116.211,212.16 151.996,224.567 116.228,236.011 C 118.699,264.917 129.937,291.362 147.302,312.589 L 176.32,297.655 161.707,327.787 C 183.787,347.895 212.267,360.96 243.678,363.733 L 256.00,326.771 256.00,227.345 332.322,143.04 329.387,144.747 346.347,116.693 C 324.425,98.185 296.853,86.349 266.615,84.053 L 256.00,116.002 245.333,84.053 C 213.282,86.455 184.162,99.682 161.711,120.107 L 176.269,150.293 147.319,135.305 C 129.899,156.638 118.643,183.155 116.211,212.16 M 256.00,384.00 C 167.74,384.00 95.996,312.213 95.996,223.979 95.996,135.735 167.74,64.00 256.00,64.00 344.213,64.00 416.00,135.735 416.00,223.979 416.00,312.213 344.213,384.00 256.00,384.00"  />
<glyph unicode="&#xe0be;" d="M 217.28,31.842 293.175,31.842 293.175,104.107 217.28,104.107 217.28,31.842 z M 326.293,136.371 400.32,136.371 400.32,207.735 326.293,207.735 326.293,136.371 z M 217.28,136.371 293.175,136.371 293.175,207.518 217.28,207.518 217.28,136.371 z M 111.309,136.00 185.335,136.00 185.335,208.107 111.309,208.107 111.309,136.00 z M 326.293,240.107 400.691,240.107 400.691,311.467 326.293,311.467 326.293,240.107 z M 400.32,416.158 326.293,416.158 326.293,344.427 400.32,344.427 400.32,416.158 z M 217.28,240.107 293.175,240.107 293.175,311.467 217.28,311.467 217.28,240.107 z M 111.68,239.36 185.335,239.36 185.335,311.467 111.68,311.467 111.68,239.36 z M 218.295,344.533 293.175,344.533 293.175,416.158 218.295,416.158 218.295,344.533 z M 111.68,344.909 185.335,344.909 185.335,416.158 111.68,416.158 111.68,344.909 z"  />
<glyph unicode="&#xe0bf;" d="M 49.318,151.949 C 50.214,145.425 55.697,140.403 62.481,140.395 63.249,140.395 64.043,140.501 64.785,140.646 L 64.875,140.582 159.13,156.25 159.13,156.373 C 165.53,157.333 170.385,162.769 170.436,169.476 170.385,170.099 170.33,170.756 170.223,171.413 L 170.223,171.413 C 170.172,171.814 170.116,172.186 170.01,172.57 168.41,181.53 167.718,182.178 166.118,189.751 163.716,200.614 158.332,215.735 151.556,232.213 169.37,245.278 205.743,254.827 256.038,254.827 306.278,254.878 342.703,245.278 360.465,232.213 353.69,215.735 348.356,200.623 345.903,189.751 344.303,182.208 343.612,181.564 342.012,172.582 341.956,172.198 341.85,171.84 341.798,171.435 341.798,171.435 341.743,171.413 341.798,171.388 341.692,170.778 341.585,170.125 341.585,169.468 341.585,162.812 346.492,157.376 352.892,156.352 L 352.943,156.288 447.13,140.591 447.236,140.676 C 447.983,140.548 448.73,140.45 449.532,140.425 456.303,140.459 461.798,145.498 462.703,152.00 470.972,196.361 474.97,240.00 448.358,260.322 419.878,282.133 334.438,307.575 256.038,307.575 177.583,307.52 92.122,282.078 63.676,260.267 37.06,239.949 41.041,196.322 49.318,151.949"  />
<glyph unicode="&#xe0c0;" d="M 178.402,213.069 C 146.061,213.069 119.838,186.859 119.838,154.505 119.838,122.189 146.061,96.00 178.402,96.00 210.688,96.00 236.907,122.189 236.907,154.505 236.907,186.859 210.688,213.069 178.402,213.069 M 197.414,119.573 192.29,136.371 166.417,136.371 161.237,119.573 145.165,119.573 169.557,195.179 189.013,195.179 213.521,119.573 197.414,119.573 z M 182.852,170.475 C 182.438,171.878 181.99,173.414 181.534,175.121 181.094,176.832 180.638,178.513 180.224,180.22 179.831,181.926 179.524,183.407 179.354,184.614 179.209,183.851 179.046,182.959 178.82,181.926 178.598,180.89 178.342,179.831 178.044,178.684 L 177.173,175.206 176.277,171.93 175.518,169.186 C 175.296,168.401 175.155,167.172 175.04,166.801 L 170.257,150.345 188.599,150.345 183.782,166.801 C 183.556,167.42 183.241,169.071 182.852,170.475 M 340.053,259.58 374.135,352.00 278.40,352.00 252.535,217.574 300.373,217.574 275.307,105.545 291.20,105.545 392.158,259.58 340.053,259.58 z"  />
<glyph unicode="&#xe0c1;" d="M 222.293,96.00 180.395,137.869 138.56,96.00 113.92,120.559 155.84,162.453 113.92,204.322 138.56,228.851 180.395,186.987 222.263,228.851 246.844,204.267 205.001,162.453 246.844,120.559 222.293,96.00 z M 347.255,259.20 380.693,352.00 287.305,352.00 261.722,217.011 308.425,217.011 283.947,107.354 299.469,107.354 398.08,259.20 347.255,259.20 z"  />
<glyph unicode="&#xe0c2;" d="M 274.24,255.68 309.338,352.00 210.667,352.00 184.00,211.627 233.348,211.627 207.467,96.00 223.876,96.00 328.00,255.68 274.24,255.68 z"  />
<glyph unicode="&#xe0c3;" d="M 255.838,298.402 C 214.763,298.33 181.495,264.943 181.547,223.838 181.653,182.775 215.053,149.495 256.132,149.602 297.216,149.653 330.509,183.04 330.402,224.107 330.347,265.233 296.956,298.492 255.838,298.402M 256.213,101.602 C 188.745,101.466 133.76,156.267 133.602,223.735 133.495,291.255 188.267,346.24 255.757,346.402 323.255,346.509 378.295,291.733 378.402,224.213 378.56,156.745 323.678,101.722 256.213,101.602 M 443.469,234.935 399.04,234.88 C 393.707,305.60 337.067,361.975 266.325,367.091 L 266.24,411.52 245.026,411.469 245.107,367.04 C 174.40,361.655 117.973,305.067 112.909,234.295 L 68.48,234.185 68.535,213.013 112.96,213.12 C 118.293,142.40 174.933,85.995 245.675,80.922 L 245.743,36.429 266.957,36.48 266.859,80.956 C 337.60,86.298 393.975,142.933 399.091,213.653 L 443.52,213.76 443.469,234.935 z"  />
<glyph unicode="&#xe0c4;" d="M 314.24,266.935 315.52,268.233 300.083,283.755 255.949,239.467 213.069,282.475 211.789,283.755 196.322,268.233 240.482,223.974 197.602,180.962 196.322,179.678 211.789,164.16 255.949,208.482 298.786,165.495 300.083,164.16 315.541,179.678 271.386,223.974 314.24,266.935 zM 256.213,101.602 C 188.745,101.466 133.76,156.267 133.602,223.735 133.44,291.255 188.267,346.24 255.748,346.402 323.255,346.509 378.295,291.733 378.402,224.213 378.56,156.745 323.678,101.722 256.213,101.602 M 443.469,234.935 399.04,234.88 C 393.707,305.60 337.067,361.975 266.325,367.091 L 266.244,411.52 245.026,411.469 245.107,367.04 C 174.40,361.655 117.973,305.067 112.909,234.295 L 68.48,234.185 68.535,213.013 112.96,213.12 C 118.293,142.40 174.933,85.995 245.67,80.922 L 245.743,36.429 266.957,36.48 266.859,80.956 C 337.60,86.298 393.975,142.933 399.091,213.653 L 443.52,213.76 443.469,234.935 z"  />
<glyph unicode="&#xe0c5;" d="M 256.213,101.602 C 188.745,101.466 133.705,156.267 133.602,223.735 133.44,291.255 188.267,346.24 255.744,346.402 323.255,346.509 378.295,291.733 378.402,224.213 378.56,156.745 323.678,101.722 256.213,101.602 M 443.469,234.935 399.04,234.88 C 393.707,305.60 337.067,361.975 266.321,367.091 L 266.236,411.52 245.026,411.469 245.099,367.04 C 174.40,361.655 117.973,305.067 112.909,234.295 L 68.48,234.185 68.535,213.013 112.96,213.12 C 118.293,142.40 174.933,85.995 245.67,80.922 L 245.743,36.429 266.957,36.48 266.846,80.956 C 337.60,86.298 393.975,142.933 399.091,213.653 L 443.52,213.76 443.469,234.935 z"  />
<glyph unicode="&#xe0c6;" d="M 254.989,170.027 C 286.686,170.027 312.32,186.923 312.32,207.782 L 312.32,361.707 C 312.32,382.562 286.686,399.467 254.989,399.467 223.317,399.467 197.653,382.562 197.653,361.707 L 197.653,207.782 C 197.653,186.923 223.317,170.027 254.989,170.027 M 360.533,248.695 336.107,248.589 336.107,212.314 C 336.107,167.014 299.627,145.425 254.775,145.425 209.894,145.425 173.385,167.014 173.385,212.314 L 173.385,248.589 149.811,248.695 C 149.811,248.695 147.038,244.267 147.038,239.091 147.038,233.92 149.811,231.467 149.811,231.467 L 159.36,231.467 159.36,212.339 C 159.36,172.932 181.013,146.654 226.308,135.177 L 226.308,116.855 C 226.308,116.855 231.94,114.027 245.414,113.067 L 245.414,93.547 C 197.547,91.627 168.96,84.053 168.96,74.935 L 168.96,67.682 C 168.96,57.122 207.462,48.585 254.989,48.585 302.49,48.585 341.013,57.122 341.013,67.682 L 341.013,74.935 C 341.013,84.053 312.375,91.627 264.542,93.547 L 264.542,113.067 C 278.063,114.027 283.665,116.855 283.665,116.855 L 283.665,135.36 C 328.853,147.174 350.562,174.345 350.562,212.339 L 350.562,231.467 360.533,231.467 C 360.533,231.467 364.907,233.971 364.907,239.573 364.907,245.12 360.533,248.695 360.533,248.695"  />
<glyph unicode="&#xe0c7;" d="M 362.133,248.695 337.702,248.559 337.702,212.314 C 337.702,166.989 301.227,145.442 256.371,145.442 236.907,145.442 218.987,149.495 204.962,157.815 L 223.949,176.747 C 233.225,172.535 244.425,170.027 256.589,170.027 288.269,170.027 313.933,186.935 313.933,207.782 L 313.933,266.65 387.985,340.693 370.825,357.815 313.933,300.928 313.933,361.707 C 313.933,382.562 288.269,399.467 256.589,399.467 224.909,399.467 199.253,382.562 199.253,361.707 L 199.253,207.782 C 199.253,202.052 201.225,196.651 204.693,191.787 L 186.88,173.973 C 179.362,184.051 174.989,196.736 174.989,212.314 L 174.989,248.559 151.411,248.695 C 151.411,248.695 148.638,244.271 148.638,239.104 148.638,233.933 151.411,231.471 151.411,231.471 L 160.96,231.471 160.96,212.339 C 160.96,193.011 166.187,176.802 176.909,164.002 L 124.002,111.091 141.12,93.973 195.469,148.322 C 204.48,142.827 215.253,138.402 227.891,135.202 L 227.891,116.855 C 227.891,116.855 233.545,114.027 246.989,113.067 L 246.989,93.547 C 199.147,91.627 170.56,84.053 170.56,74.935 L 170.56,67.682 C 170.56,57.122 209.067,48.585 256.589,48.585 304.055,48.585 342.601,57.122 342.601,67.682 L 342.601,74.935 C 342.601,84.053 313.988,91.627 266.133,93.547 L 266.133,113.067 C 279.625,114.027 285.227,116.855 285.227,116.855 L 285.227,135.36 C 330.428,147.20 352.166,174.345 352.166,212.339 L 352.166,231.471 362.133,231.471 C 362.133,231.471 366.498,233.95 366.498,239.552 366.498,245.116 362.133,248.695 362.133,248.695"  />
<glyph unicode="&#xe0c8;" d="M 60.907,60.962 128.482,60.962 128.482,165.815 60.907,165.815 60.907,60.962 zM 168.427,60.962 236.053,60.962 236.053,239.573 168.427,239.573 168.427,60.962 zM 275.947,60.962 343.573,60.962 343.573,313.28 275.947,313.28 275.947,60.962 zM 383.518,60.962 451.093,60.962 451.093,387.038 383.518,387.038 383.518,60.962 z"  />
<glyph unicode="&#xe0c9;" d="M 105.28,250.935 144.597,202.999 C 174.989,227.755 213.76,242.65 256.00,242.65 298.24,242.65 337.067,227.755 367.467,202.999 L 406.72,250.935 C 365.602,284.412 313.122,304.533 256.00,304.533 198.878,304.533 146.389,284.412 105.28,250.935 M 154.014,191.467 195.469,140.907 C 211.84,155.413 232.909,164.211 256.00,164.211 279.091,164.211 300.211,155.413 316.587,140.907 L 358.025,191.467 C 330.185,214.157 294.72,227.806 256.00,227.806 217.335,227.806 181.815,214.157 154.014,191.467 M 204.745,129.651 256.00,67.038 307.307,129.60 C 293.491,141.922 275.575,149.385 256.00,149.385 236.425,149.385 218.56,141.922 204.745,129.651 M 56.704,310.293 96.017,262.34 C 139.618,297.873 195.307,319.253 256.00,319.253 316.638,319.253 372.373,297.873 416.055,262.289 L 455.36,310.293 C 339.627,404.535 172.425,404.535 56.704,310.293"  />
<glyph unicode="&#xe0ca;" d="M 355.52,124.962 355.52,196.587 333.116,196.587 333.116,124.962 262.507,124.962 262.507,102.545 333.116,102.545 333.116,30.933 355.52,30.933 355.52,102.545 426.078,102.545 426.078,124.962 355.52,124.962 zM 273.067,354.667 C 273.067,368.431 284.241,379.601 298.035,379.601 311.808,379.601 322.961,368.431 322.961,354.667 322.961,340.868 311.808,329.711 298.035,329.711 284.241,329.711 273.067,340.868 273.067,354.667 M 85.918,180.002 85.918,142.558 123.358,142.558 135.838,155.038 135.838,180.002 160.802,180.002 160.802,204.962 185.758,204.962 232.977,252.211 C 244.996,245.973 258.586,242.402 273.067,242.402 321.284,242.402 360.371,281.493 360.371,329.711 360.371,377.92 321.284,417.011 273.067,417.011 224.849,417.011 185.758,377.92 185.758,329.711 185.758,315.23 189.333,301.632 195.52,289.60 L 85.918,180.002 z"  />
<glyph unicode="&#xe0cb;" d="M 344.747,222.455 344.747,315.733 C 344.747,359.253 314.278,403.255 256.00,403.255 197.705,403.255 167.202,359.253 167.202,315.733 L 167.202,258.914 204.587,258.914 204.587,315.733 C 204.587,339.895 220.693,365.922 256.00,365.922 291.307,365.922 307.392,339.895 307.392,315.733 L 307.392,222.455 123.307,222.455 123.307,44.80 388.663,44.80 388.663,222.455 344.747,222.455 z"  />
<glyph unicode="&#xe0cc;" d="M 280.802,324.962 274.991,308.045 C 289.707,301.717 304.384,293.581 315.78,282.18 327.185,270.775 335.518,255.945 341.815,241.225 L 356.425,248.269 C 349.069,265.758 340.373,281.152 327.006,294.511 313.924,307.61 298.095,317.572 280.802,324.962 M 390.345,234.347 407.309,238.775 C 395.093,269.227 376.32,297.583 352.96,320.947 329.536,344.358 301.21,363.093 270.763,375.313 L 266.342,358.34 C 294.084,347.409 319.902,330.479 341.175,309.201 362.453,287.919 379.413,262.08 390.345,234.347 M 421.602,133.653 C 421.12,134.187 420.48,134.613 419.895,135.04 L 419.895,135.091 347.20,187.093 347.093,187.038 C 342.293,190.613 335.411,190.242 330.999,185.813 330.594,185.387 330.206,184.909 329.852,184.371 329.626,184.107 329.404,183.838 329.22,183.518 324.356,176.533 324.395,175.629 320.448,169.545 314.85,160.802 308.39,147.255 301.999,131.84 281.579,134.985 251.191,152.695 217.92,185.971 184.695,219.20 166.985,249.60 163.84,270.029 179.255,276.416 192.747,282.884 201.60,288.452 207.573,292.412 208.482,292.369 215.518,297.225 215.787,297.446 216.051,297.63 216.371,297.843 L 216.427,297.894 C 216.853,298.223 217.387,298.586 217.813,299.034 222.242,303.441 222.558,310.268 219.038,315.162 L 219.038,315.247 167.147,387.947 166.985,387.947 C 166.562,388.535 166.135,389.12 165.602,389.653 161.173,394.078 154.189,394.402 149.278,390.669 114.505,366.801 82.987,340.591 87.147,309.568 91.52,276.284 131.20,202.987 183.091,151.091 234.961,99.251 308.309,59.52 341.547,55.202 372.587,50.987 398.771,82.505 422.669,117.333 426.402,122.189 426.078,129.173 421.602,133.653"  />
<glyph unicode="&#xe0cd;" d="M 320.533,202.718 320.533,227.90 C 320.533,262.135 292.629,290.027 258.402,290.027 224.162,290.027 196.211,262.135 196.211,227.90 L 196.211,202.718 168.107,202.718 168.107,103.04 348.698,103.04 348.698,202.718 320.533,202.718 z M 220.211,227.90 C 220.211,248.973 237.333,266.078 258.402,266.078 279.45,266.078 296.576,248.973 296.576,227.90 L 296.576,202.718 220.211,202.718 220.211,227.90 zM 421.653,139.678 L 421.653,345.011 L 90.347,345.011 L 90.347,139.678 L 144.695,139.678 L 144.695,160.218 L 110.878,160.218 L 110.878,324.48 L 401.109,324.48 L 401.109,160.218 L 371.819,160.218 L 371.819,139.678 L 421.653,139.678 L 421.653,139.678 Z"  />
<glyph unicode="&#xe0ce;" d="M 266.829,222.669 266.829,250.138 C 266.829,284.373 238.925,312.213 204.693,312.213 170.402,312.213 142.507,284.373 142.507,250.138 L 142.507,222.669 114.402,222.669 114.402,128.589 294.993,128.589 294.993,222.669 266.829,222.669 z M 166.507,250.138 C 166.507,271.164 183.629,288.269 204.693,288.269 225.749,288.269 242.867,271.164 242.867,250.138 L 242.867,222.669 166.507,222.669 166.507,250.138 zM 195.947,58.347 L 397.602,58.347 L 397.602,389.653 L 195.947,389.653 L 195.947,335.36 L 216.115,335.36 L 216.115,369.118 L 377.438,369.118 L 377.438,78.891 L 216.115,78.891 L 216.115,104.277 L 195.947,104.277 L 195.947,58.347 L 195.947,58.347 Z"  />
<glyph unicode="&#xe0cf;" d="M 212.587,404.745 74.295,266.402 297.493,43.20 435.785,181.547 212.587,404.745 z M 101.973,266.402 212.587,377.062 408.158,181.547 297.493,70.878 101.973,266.402 zM 287.625,394.825 284.463,390.882 335.791,332.907 343.787,367.083 C 387.947,348.463 419.038,304.695 419.038,253.815 L 437.705,253.815 C 437.705,331.733 374.40,395.089 296.58,395.307 L 296.26,395.409 296.209,395.307 287.625,394.825 zM 234.347,47.253 237.547,51.20 186.223,109.171 178.24,74.982 C 134.025,93.606 102.933,137.335 102.933,188.267 L 84.318,188.267 C 84.318,110.349 147.627,46.98 225.382,46.771 L 225.702,46.673 225.818,46.771 234.347,47.253 z"  />
<glyph unicode="&#xe0d0;" d="M 353.229,298.773 L 353.229,358.669 L 338.291,358.669 L 338.291,298.773 L 353.229,298.773 L 353.229,298.773 Z M 323.307,298.773 L 323.307,373.602 L 308.373,373.602 L 308.373,298.773 L 323.307,298.773 L 323.307,298.773 Z M 293.389,298.773 L 293.389,358.669 L 278.40,358.669 L 278.40,298.773 L 293.389,298.773 L 293.389,298.773 Z M 233.545,298.773 L 233.545,358.669 L 218.615,358.669 L 218.615,298.773 L 233.545,298.773 L 233.545,298.773 Z M 203.627,298.773 L 203.627,358.669 L 188.693,358.669 L 188.693,298.773 L 203.627,298.773 L 203.627,298.773 Z M 248.533,373.602 L 248.533,298.773 L 263.467,298.773 L 263.467,373.602 L 248.533,373.602 L 248.533,373.602 Z M 351.787,388.535 C 360.853,388.535 368.213,381.227 368.213,372.105 L 368.213,73.813 C 368.213,65.869 361.758,59.469 353.813,59.469 L 158.613,59.469 C 150.669,59.469 144.269,65.869 144.269,73.813 L 144.269,176.64 L 155.469,186.078 C 158.985,188.851 161.067,190.613 161.067,197.602 L 161.067,207.411 C 161.067,209.971 159.68,216.482 151.945,216.482 C 151.945,216.482 143.787,214.878 143.787,221.602 L 143.787,246.613 L 173.653,276.425 L 173.653,372.16 C 173.653,381.227 181.013,388.535 190.135,388.535 L 351.787,388.535 L 351.787,388.535 Z"  />
<glyph unicode="&#xe0d1;" d="M 204.587,297.707 C 204.587,321.869 220.672,347.844 255.983,347.844 291.307,347.844 307.362,321.869 307.362,297.707 L 307.362,240.427 204.587,240.427 204.587,297.707 z M 344.747,240.427 344.747,297.707 C 344.747,341.188 314.24,385.229 255.983,385.229 197.70,385.229 167.215,341.188 167.215,297.707 L 167.215,240.427 123.307,240.427 123.307,62.771 388.642,62.771 388.642,240.427 344.747,240.427 z"  />
<glyph unicode="&#xe0d2;" d="M 96.00,293.333 416.00,293.333 416.00,368.00 96.00,368.00 96.00,293.333 z M 117.333,336.00 182.293,336.00 182.293,314.509 117.333,314.509 117.333,336.00 z M 96.00,186.667 416.00,186.667 416.00,261.333 96.00,261.333 96.00,186.667 z M 117.333,229.333 182.293,229.333 182.135,208.00 117.171,208.00 117.333,229.333 z M 96.00,80.00 416.00,80.00 416.00,154.667 96.00,154.667 96.00,80.00 z M 117.333,122.667 182.293,122.667 182.293,101.333 117.333,101.333 117.333,122.667 z"  />
</font>
</defs>
</svg>
